<svg width="109" height="91" viewBox="0 0 109 91" fill="none" xmlns="http://www.w3.org/2000/svg">
<path d="M12.625 82.7057C19.6796 87.792 30.0011 91 41.5 91C52.2689 91 62.0052 88.1864 68.9925 83.6513C73.1107 86.3933 78.1101 88 83.5 88C97.5833 88 109 77.031 109 63.5C109 49.969 97.5833 39 83.5 39C81.0114 39 78.6061 39.3425 76.3323 39.9811C71.6693 35.0767 64.9586 32 57.5 32C53.7846 32 50.2548 32.7634 47.0712 34.136C43.2432 25.2509 34.1314 19 23.5 19C20.0357 19 16.7328 19.6637 13.7214 20.8661C11.8941 9.05841 1.29808 0 -11.5 0C-25.5833 0 -37 10.969 -37 24.5C-37 26.4134 -36.7717 28.2756 -36.3398 30.0628C-49.5643 30.9687 -60 41.5634 -60 54.5C-60 68.031 -48.5833 79 -34.5 79C-32.5417 79 -30.6349 78.7879 -28.8032 78.3863C-24.4505 85.9095 -16.094 91 -6.5 91C1.11617 91 7.95248 87.792 12.625 82.7057Z" fill="#CEC9FF" fill-opacity="0.7"/>
</svg>
