<svg width="18" height="24" viewBox="0 0 18 24" fill="none" xmlns="http://www.w3.org/2000/svg">
<path d="M17.1 6.85718C16.6032 6.85718 16.2 7.24118 16.2 7.71432V10.2857C16.2 14.0675 12.9708 17.1429 9 17.1429C5.0292 17.1429 1.8 14.0675 1.8 10.2857V7.71432C1.8 7.24118 1.3968 6.85718 0.9 6.85718C0.4032 6.85718 0 7.24118 0 7.71432V10.2857C0 14.7172 3.564 18.3326 8.1 18.7697V23.1429C8.1 23.616 8.5032 24 9 24C9.4968 24 9.9 23.616 9.9 23.1429V18.7697C14.436 18.3326 18 14.7189 18 10.2857V7.71432C18 7.24118 17.5968 6.85718 17.1 6.85718Z" fill="white"/>
<path d="M9.00163 15.4286C11.9788 15.4286 14.4016 13.1211 14.4016 10.2857V5.14286C14.4016 2.30743 11.9788 0 9.00163 0C6.02442 0 3.60162 2.30743 3.60162 5.14286V10.2857C3.60162 13.1211 6.02442 15.4286 9.00163 15.4286Z" fill="white"/>
</svg>
