<svg width="20" height="22" viewBox="0 0 20 22" fill="none" xmlns="http://www.w3.org/2000/svg">
<path d="M0.192118 12.0672C0.189354 10.1451 0.753795 8.26484 1.81474 6.66203C1.97936 6.41318 2.23609 6.23992 2.52846 6.18036C2.82083 6.12079 3.12488 6.17981 3.37374 6.34443C3.62259 6.50905 3.79585 6.76578 3.85541 7.05815C3.91498 7.35052 3.85596 7.65457 3.69134 7.90342C2.87427 9.13818 2.43972 10.5866 2.44212 12.0672C2.44212 16.2346 5.83282 19.625 10 19.625C14.1672 19.625 17.5579 16.2346 17.5579 12.0671C17.5579 7.89972 14.1674 4.50925 10 4.50925C9.7426 4.50924 9.48536 4.52214 9.22924 4.54793L9.98782 5.07907C10.2322 5.2502 10.3987 5.51142 10.4505 5.80525C10.5023 6.09909 10.4353 6.40147 10.2641 6.64589C10.093 6.8903 9.83178 7.05672 9.53794 7.10854C9.24411 7.16036 8.94172 7.09332 8.69731 6.92219L5.90313 4.96577C5.78211 4.88103 5.67896 4.77329 5.59958 4.64868C5.5202 4.52408 5.46614 4.38506 5.44048 4.23957C5.41483 4.09407 5.41808 3.94495 5.45006 3.80071C5.48204 3.65647 5.54211 3.51995 5.62685 3.39893L7.58337 0.604802C7.75471 0.360892 8.01584 0.194949 8.30943 0.143413C8.60301 0.0918761 8.90505 0.158959 9.14922 0.32993C9.39339 0.500901 9.55972 0.761784 9.6117 1.05529C9.66368 1.3488 9.59705 1.65094 9.42645 1.89536L9.14557 2.29652C9.42837 2.27219 9.71318 2.25902 10 2.25902C15.4081 2.25902 19.8079 6.65885 19.8079 12.067C19.8079 17.4751 15.4081 21.875 10 21.875C4.5919 21.875 0.192117 17.4753 0.192118 12.0672Z" fill="white"/>
</svg>
