<svg width="180" height="91" viewBox="0 0 180 91" fill="none" xmlns="http://www.w3.org/2000/svg">
<path fill-rule="evenodd" clip-rule="evenodd" d="M90 0C138.365 0 177.819 38.1493 179.913 85.9978C180.009 88.2048 178.209 90 176 90H130C127.791 90 126.023 88.2022 125.781 86.0064C123.794 68.0035 108.532 54 90 54C71.4676 54 56.2059 68.0035 54.219 86.0064C53.9767 88.2022 52.2091 90 50 90H4C1.79086 90 -0.00918609 88.2048 0.0873926 85.9978C2.18122 38.1493 41.6355 0 90 0Z" fill="#FFC700"/>
<path d="M51.5 90H3C0.6 90 0 87.3333 0 86C0.8 56.4 18 32 29.5 23.5L74 57.5C56 67 54 87 54 87C54 87 53.5 90 51.5 90Z" fill="#FF4E61"/>
<path d="M128.5 90.5H177C179.4 90.5 180 87.8333 180 86.5C179.2 56.9 162 32.5 150.5 24L106 58C124 67.5 126 87.5 126 87.5C126 87.5 126.5 90.5 128.5 90.5Z" fill="#62D38F"/>
<path d="M29.5 23L73.5 58.5" stroke="white" stroke-width="3"/>
<path d="M151.908 24.1938L106.5 59" stroke="white" stroke-width="3"/>
</svg>
