<svg width="24" height="24" viewBox="0 0 24 24" fill="none" xmlns="http://www.w3.org/2000/svg">
<g clip-path="url(#clip0)">
<path d="M13.9472 0.878895C13.6688 0.746095 13.3408 0.781295 13.1008 0.974895L5.3184 7.20049H1.6C0.7184 7.20049 0 7.91889 0 8.80049V15.2005C0 16.0837 0.7184 16.8005 1.6 16.8005H5.3184L13.0992 23.0261C13.2448 23.1413 13.4224 23.2005 13.6 23.2005C13.7184 23.2005 13.8368 23.1733 13.9472 23.1205C14.224 22.9877 14.4 22.7077 14.4 22.4005V1.60049C14.4 1.29329 14.224 1.01329 13.9472 0.878895Z" fill="white"/>
<path d="M18.4496 6.34277C18.1344 6.03237 17.6288 6.03717 17.3184 6.34917C17.008 6.66437 17.0112 7.16997 17.3248 7.48197C18.5344 8.67557 19.2 10.2804 19.2 12.0004C19.2 13.7204 18.5344 15.3252 17.3248 16.5188C17.0112 16.8276 17.008 17.3348 17.3184 17.65C17.4752 17.8084 17.6816 17.8868 17.8864 17.8868C18.0896 17.8868 18.2928 17.81 18.4496 17.6548C19.9664 16.162 20.8 14.1524 20.8 12.0004C20.8 9.84837 19.9664 7.83877 18.4496 6.34277Z" fill="white"/>
<path d="M20.7072 4.08841C20.392 3.77641 19.8864 3.77961 19.5744 4.09321C19.264 4.40681 19.2672 4.91401 19.5792 5.22441C21.3984 7.02761 22.4 9.43401 22.4 12.0004C22.4 14.5668 21.3984 16.9716 19.5792 18.7748C19.2672 19.0868 19.264 19.594 19.5744 19.9076C19.7328 20.0644 19.9376 20.1428 20.1424 20.1428C20.3456 20.1428 20.5504 20.066 20.7072 19.9108C22.832 17.8068 24 14.9972 24 12.0004C24 9.00361 22.832 6.19401 20.7072 4.08841Z" fill="white"/>
</g>
<defs>
<clipPath id="clip0">
<rect width="24" height="24" fill="white"/>
</clipPath>
</defs>
</svg>
