<svg width="37" height="51" viewBox="0 0 37 51" fill="none" xmlns="http://www.w3.org/2000/svg">
<g clip-path="url(#clip0_1445_5932)">
<path d="M15.4352 45.1899L12.4664 42.6616V36.0092H15.4352V45.1899Z" fill="#EF0671"/>
<path d="M21.5934 45.1899L24.5622 42.6616V36.0092H21.5934V45.1899Z" fill="#A20589"/>
<path d="M14.275 0.0149841C6.33536 0.364254 0 7.26095 0 15.7191C0 19.3573 1.19683 22.8828 3.38633 25.6946L12.4668 37.3556H15.0726C15.0725 37.3556 11.1468 2.12271 14.275 0.0149841V0.0149841Z" fill="#FFF0B8"/>
<path d="M22.7545 0.0149841C30.6941 0.364254 37.0295 7.26095 37.0295 15.7191C37.0295 19.3573 35.8327 22.8828 33.6432 25.6946L24.5627 37.3556H21.9569C21.957 37.3556 25.8827 2.12271 22.7545 0.0149841V0.0149841Z" fill="#FF4E61"/>
<path d="M14.9072 0C14.6954 0 14.4849 0.00584378 14.2752 0.0150269C11.1471 2.12275 8.88159 8.30244 8.88159 15.599C8.88159 19.3851 9.50425 23.0538 10.6435 25.9798L15.0727 37.3556H18.5152L22.5638 18.1372L18.5152 0H14.9072Z" fill="#F9DA37"/>
<path d="M28.1495 15.599C28.1495 8.30244 25.8841 2.12275 22.7559 0.0150269C22.5463 0.00584378 22.3359 0 22.124 0H18.516V37.3556H21.9584L26.3876 25.9798C27.5268 23.0538 28.1495 19.385 28.1495 15.599Z" fill="#F79F5E"/>
<path d="M12.4664 42.6616V48.3658C12.4664 51.1621 14.6162 53.429 17.268 53.429H18.5146L21.9571 47.6871L18.5146 42.6616H12.4664Z" fill="#5F05A7"/>
<path d="M18.5156 42.6616V53.429H19.7622C22.4141 53.429 24.5638 51.1621 24.5638 48.3658V42.6616H18.5156Z" fill="#2D0390"/>
</g>
<defs>
<clipPath id="clip0_1445_5932">
<rect width="37" height="51" fill="white"/>
</clipPath>
</defs>
</svg>
