<svg width="55" height="38" viewBox="0 0 55 38" fill="none" xmlns="http://www.w3.org/2000/svg">
<g clip-path="url(#clip0_1446_6078)">
<g filter="url(#filter0_d_1446_6078)">
<path fill-rule="evenodd" clip-rule="evenodd" d="M54.8837 27.4418L54.8836 27.5343V27.5343C54.8836 27.4833 54.8422 27.4419 54.7912 27.4419H38.4186C38.4186 27.4419 38.4186 27.4419 38.4186 27.4418V27.4418C38.4186 21.3796 33.5041 16.4651 27.4419 16.4651C21.3796 16.4651 16.4651 21.3796 16.4651 27.4418V27.4418C16.4651 27.4419 16.4651 27.4419 16.4651 27.4419H0.000217438C0.000164768 27.4419 0.00012207 27.4419 0.00012207 27.4418V27.4418C0.00012207 12.2861 12.2862 0 27.4419 0C42.5976 0 54.8837 12.2861 54.8837 27.4418Z" fill="#FFC700"/>
<path d="M15.7027 27.4419H0.914605C0.182823 27.4419 -0.00012207 26.6288 -0.00012207 26.2223C0.243805 17.197 5.48824 9.75719 8.99469 7.16547L22.5631 17.5324C17.0748 20.429 16.465 26.5272 16.465 26.5272C16.465 26.5272 16.3125 27.4419 15.7027 27.4419Z" fill="#FF4E61"/>
<path d="M39.1809 27.5942H53.9689C54.7007 27.5942 54.8837 26.7811 54.8837 26.3746C54.6397 17.3493 49.3953 9.9095 45.8889 7.31778L32.3204 17.6847C37.8088 20.5813 38.4186 26.6795 38.4186 26.6795C38.4186 26.6795 38.571 27.5942 39.1809 27.5942Z" fill="#62D38F"/>
<path d="M33.1243 19.1971L21.0957 19.8054L26.5394 6.70756L33.1243 19.1971Z" fill="white"/>
<path d="M36.9957 26.3286C37.2593 31.5422 33.2466 35.9824 28.0329 36.2461C22.8193 36.5097 18.3791 32.497 18.1155 27.2833C17.8518 22.0697 21.8646 17.6295 27.0782 17.3659C32.2918 17.1022 36.732 21.115 36.9957 26.3286Z" fill="#758FEA"/>
<path d="M26.6316 8.53478L32.2803 21.3007L21.9951 21.8207L26.6316 8.53478Z" fill="#758FEA"/>
<g filter="url(#filter1_i_1446_6078)">
<circle cx="28" cy="27" r="4" fill="white"/>
</g>
</g>
</g>
<defs>
<filter id="filter0_d_1446_6078" x="-1.00012" y="0" width="56.8838" height="38.2584" filterUnits="userSpaceOnUse" color-interpolation-filters="sRGB">
<feFlood flood-opacity="0" result="BackgroundImageFix"/>
<feColorMatrix in="SourceAlpha" type="matrix" values="0 0 0 0 0 0 0 0 0 0 0 0 0 0 0 0 0 0 127 0" result="hardAlpha"/>
<feOffset dy="1"/>
<feGaussianBlur stdDeviation="0.5"/>
<feComposite in2="hardAlpha" operator="out"/>
<feColorMatrix type="matrix" values="0 0 0 0 0 0 0 0 0 0 0 0 0 0 0 0 0 0 0.25 0"/>
<feBlend mode="normal" in2="BackgroundImageFix" result="effect1_dropShadow_1446_6078"/>
<feBlend mode="normal" in="SourceGraphic" in2="effect1_dropShadow_1446_6078" result="shape"/>
</filter>
<filter id="filter1_i_1446_6078" x="24" y="23" width="8" height="9" filterUnits="userSpaceOnUse" color-interpolation-filters="sRGB">
<feFlood flood-opacity="0" result="BackgroundImageFix"/>
<feBlend mode="normal" in="SourceGraphic" in2="BackgroundImageFix" result="shape"/>
<feColorMatrix in="SourceAlpha" type="matrix" values="0 0 0 0 0 0 0 0 0 0 0 0 0 0 0 0 0 0 127 0" result="hardAlpha"/>
<feOffset dy="1"/>
<feGaussianBlur stdDeviation="0.5"/>
<feComposite in2="hardAlpha" operator="arithmetic" k2="-1" k3="1"/>
<feColorMatrix type="matrix" values="0 0 0 0 0 0 0 0 0 0 0 0 0 0 0 0 0 0 0.25 0"/>
<feBlend mode="normal" in2="shape" result="effect1_innerShadow_1446_6078"/>
</filter>
<clipPath id="clip0_1446_6078">
<rect width="55" height="38" fill="white"/>
</clipPath>
</defs>
</svg>
