<svg width="45" height="41" viewBox="0 0 45 41" fill="none" xmlns="http://www.w3.org/2000/svg">
<g clip-path="url(#clip0_1446_6069)">
<path d="M78.4615 18.2352C78.3615 18.3693 78.2628 18.5034 78.1589 18.6268C75.1058 22.4132 71.154 24.3345 66.4113 24.3345C65.3114 24.3304 64.2137 24.2345 63.1293 24.0476C57.4364 23.0849 54.0781 18.7434 55.144 13.7234C55.8178 10.5498 58.7642 8.24762 62.1489 8.24762C62.7868 8.24781 63.4219 8.33209 64.0386 8.49835C65.194 8.81075 66.1231 9.5053 66.5876 10.4036C66.7963 10.7987 66.907 11.2398 66.9102 11.6885C66.9134 12.1371 66.809 12.5798 66.606 12.978C66.5544 13.0766 66.4888 13.167 66.4113 13.2461C65.573 10.8501 63.6478 10.4492 62.4634 10.4492C62.3134 10.4492 62.1581 10.4492 62.0028 10.468C60.8529 10.5643 59.7809 11.0992 59.0011 11.9657C58.1852 12.8774 57.8167 14.0412 57.9865 15.1594C58.1529 16.2467 58.5866 17.2735 59.2472 18.1441C60.4526 19.6833 62.7042 20.6018 65.269 20.6018C66.9877 20.6018 68.6695 20.1767 70.0065 19.4058C71.0827 18.7923 72.0184 17.9524 72.7513 16.9419C73.4842 15.9314 73.9975 14.7735 74.257 13.5451C74.7255 11.3998 74.4531 9.02931 73.528 7.21789C71.7567 3.75461 68.6024 1.68173 64.1505 1.05021C63.0566 0.89219 61.9535 0.810201 60.8487 0.804838C56.9956 0.804838 53.832 1.90832 51.1764 4.17829C48.9656 6.06748 47.1496 8.34551 45.6257 11.1397C44.3426 13.4902 43.257 15.4383 41.9134 17.3208C38.5998 21.968 34.2558 24.3252 29.0025 24.3252C28.4182 24.3252 27.8181 24.297 27.2022 24.2393C23.9123 23.9296 21.1712 22.6773 19.4841 20.7144C17.905 18.8761 17.3207 16.5271 17.7878 13.9192C18.3695 10.6839 21.3975 8.24493 24.8309 8.24493C25.3982 8.24502 25.9638 8.3107 26.5166 8.4407C27.701 8.71959 28.6616 9.394 29.1643 10.2923C29.3921 10.6908 29.5204 11.1402 29.5378 11.601C29.5552 12.0618 29.4613 12.5199 29.2643 12.9351C29.2292 13.0101 29.185 13.0804 29.1327 13.1442C28.7801 11.9375 27.8918 11.0888 26.5298 10.6503C26.0718 10.5021 25.5943 10.4257 25.1138 10.4237C24.0979 10.4237 23.1227 10.775 22.2187 11.4669C20.3763 12.8761 20.0842 15.6971 21.5778 17.7552C22.8556 19.517 25.3362 20.6111 28.0497 20.6111C29.7605 20.6111 31.3567 20.1861 32.6727 19.3816C36.4719 17.0607 38.1168 12.7232 36.7653 8.58684C35.5809 4.96669 32.8977 2.52777 29.0011 1.52887C26.9482 1.00328 25.0927 0.747192 23.3267 0.747192C18.9709 0.747192 15.4152 2.31592 12.4543 5.54456C11.162 6.95374 10.1316 8.55064 9.1354 10.1033C8.74061 10.7254 8.31819 11.3703 7.89577 11.9804C7.31148 12.8318 6.75088 13.7141 6.2087 14.5655C5.11119 16.2924 3.97157 18.0784 2.62008 19.6337C1.85914 20.5009 0.987176 21.2599 0.0276352 21.8903L0 21.9104V38.6999H78.4615V18.2352Z" fill="#2083CB"/>
<path d="M78.4615 20.538C78.3615 20.6721 78.2628 20.8062 78.1589 20.9296C75.1058 24.716 71.154 26.6373 66.4113 26.6373C65.3114 26.6333 64.2137 26.5373 63.1293 26.3504C57.4364 25.3877 54.0781 21.0462 55.144 16.0263C55.8178 12.8526 58.7642 10.5504 62.1489 10.5504C62.7868 10.5506 63.4219 10.6349 64.0386 10.8012C65.194 11.1136 66.1231 11.8081 66.5876 12.7064C66.7963 13.1016 66.907 13.5426 66.9102 13.9913C66.9134 14.4399 66.809 14.8826 66.606 15.2808C66.5544 15.3794 66.4888 15.4698 66.4113 15.5489C65.573 13.1529 63.6478 12.752 62.4634 12.752C62.3134 12.752 62.1581 12.752 62.0028 12.7708C60.8529 12.8672 59.7809 13.402 59.0011 14.2685C58.1852 15.1802 57.8167 16.344 57.9865 17.4623C58.1529 18.5496 58.5866 19.5763 59.2472 20.4469C60.4526 21.9861 62.7042 22.9046 65.269 22.9046C66.9877 22.9046 68.6695 22.4795 70.0065 21.7086C71.0827 21.0951 72.0184 20.2552 72.7513 19.2447C73.4842 18.2342 73.9975 17.0763 74.257 15.8479C74.7255 13.7027 74.4531 11.3321 73.528 9.5207C71.7567 6.05742 68.6024 3.98454 64.1505 3.35303C63.0566 3.195 61.9535 3.11301 60.8487 3.10765C56.9956 3.10765 53.832 4.21113 51.1764 6.48111C48.9656 8.37029 47.1496 10.6483 45.6257 13.4425C44.3426 15.793 43.257 17.7411 41.9134 19.6236C38.5998 24.2708 34.2558 26.628 29.0025 26.628C28.4182 26.628 27.8181 26.5998 27.2022 26.5422C23.9123 26.2324 21.1712 24.9801 19.4841 23.0172C17.905 21.1789 17.3207 18.8299 17.7878 16.222C18.3695 12.9867 21.3975 10.5477 24.8309 10.5477C25.3982 10.5478 25.9638 10.6135 26.5166 10.7435C27.701 11.0224 28.6616 11.6968 29.1643 12.5951C29.3921 12.9936 29.5204 13.443 29.5378 13.9038C29.5552 14.3646 29.4613 14.8227 29.2643 15.2379C29.2292 15.3129 29.185 15.3832 29.1327 15.447C28.7801 14.2403 27.8918 13.3916 26.5298 12.9531C26.0718 12.8049 25.5943 12.7285 25.1138 12.7265C24.0979 12.7265 23.1227 13.0778 22.2187 13.7697C20.3763 15.1789 20.0842 17.9999 21.5778 20.058C22.8556 21.8199 25.3362 22.914 28.0497 22.914C29.7605 22.914 31.3567 22.4889 32.6727 21.6844C36.4719 19.3635 38.1168 15.026 36.7653 10.8897C35.5809 7.2695 32.8977 4.83058 29.0011 3.83168C26.9482 3.30609 25.0927 3.05 23.3267 3.05C18.9709 3.05 15.4152 4.61873 12.4543 7.84737C11.162 9.25655 10.1316 10.8534 9.1354 12.4061C8.74061 13.0282 8.31819 13.6731 7.89577 14.2832C7.31148 15.1346 6.75088 16.0169 6.2087 16.8683C5.11119 18.5952 3.97157 20.3812 2.62008 21.9365C1.85914 22.8037 0.987176 23.5627 0.0276352 24.1931L0 24.2132V41.0027H78.4615V20.538Z" fill="#2DDBFF"/>
</g>
<defs>
<clipPath id="clip0_1446_6069">
<rect width="45" height="41" rx="20.5" fill="white"/>
</clipPath>
</defs>
</svg>
