<svg width="20" height="22" viewBox="0 0 20 22" fill="none" xmlns="http://www.w3.org/2000/svg">
<path d="M0.192148 12.0672C0.189385 10.1451 0.753826 8.26484 1.81477 6.66203C1.97939 6.41318 2.23612 6.23992 2.52849 6.18036C2.82086 6.12079 3.12491 6.17981 3.37377 6.34443C3.62262 6.50905 3.79588 6.76578 3.85544 7.05815C3.91501 7.35052 3.85599 7.65457 3.69137 7.90342C2.8743 9.13818 2.43975 10.5866 2.44215 12.0672C2.44215 16.2346 5.83285 19.625 10 19.625C14.1672 19.625 17.5579 16.2346 17.5579 12.0671C17.5579 7.89972 14.1675 4.50925 10 4.50925C9.74263 4.50924 9.48539 4.52214 9.22927 4.54793L9.98785 5.07907C10.2323 5.2502 10.3987 5.51142 10.4505 5.80525C10.5023 6.09909 10.4353 6.40147 10.2642 6.64589C10.093 6.8903 9.83181 7.05672 9.53797 7.10854C9.24414 7.16036 8.94175 7.09332 8.69734 6.92219L5.90316 4.96577C5.78214 4.88103 5.67899 4.77329 5.59961 4.64868C5.52023 4.52408 5.46617 4.38506 5.44051 4.23957C5.41486 4.09407 5.41811 3.94495 5.45009 3.80071C5.48207 3.65647 5.54214 3.51995 5.62688 3.39893L7.5834 0.604802C7.75474 0.360892 8.01587 0.194949 8.30946 0.143413C8.60304 0.0918761 8.90508 0.158959 9.14925 0.32993C9.39342 0.500901 9.55975 0.761784 9.61173 1.05529C9.66371 1.3488 9.59708 1.65094 9.42648 1.89536L9.1456 2.29652C9.4284 2.27219 9.71321 2.25902 10 2.25902C15.4081 2.25902 19.8079 6.65885 19.8079 12.067C19.8079 17.4751 15.4081 21.875 10 21.875C4.59193 21.875 0.192148 17.4753 0.192148 12.0672Z" fill="white"/>
</svg>
