<svg width="194" height="279" viewBox="0 0 194 279" fill="none" xmlns="http://www.w3.org/2000/svg">
<path d="M80.8672 235.976L65.3134 222.773V188.035H80.8672V235.976Z" fill="#EF0671"/>
<path d="M113.128 235.976L128.682 222.773V188.035H113.128V235.976Z" fill="#A20589"/>
<path d="M74.7875 0.0786743C33.1914 1.90253 0 37.9164 0 82.0839C0 101.082 6.27027 119.492 17.7412 134.175L65.3142 195.067H78.9663C78.9658 195.067 58.3989 11.085 74.7875 0.0786743V0.0786743Z" fill="#FFF0B8"/>
<path d="M119.213 0.0784302C160.809 1.90228 194 37.9161 194 82.0836C194 101.082 187.73 119.492 176.259 134.175L128.686 195.067H115.034C115.034 195.067 135.601 11.0847 119.213 0.0784302V0.0784302Z" fill="#FF4E61"/>
<path d="M78.1003 0C76.9908 0 75.8881 0.0305156 74.7894 0.0784686C58.4009 11.0848 46.5317 43.3545 46.5317 81.4564C46.5317 101.227 49.7939 120.385 55.7624 135.664L78.9672 195.067H97.0029L118.214 94.7106L97.0029 0H78.1003Z" fill="#F9DA37"/>
<path d="M147.476 81.4564C147.476 43.3545 135.608 11.0848 119.219 0.0784686C118.121 0.0305156 117.018 0 115.908 0H97.0057V195.067H115.041L138.246 135.664C144.214 120.385 147.476 101.226 147.476 81.4564Z" fill="#F79F5E"/>
<path d="M65.3134 222.774V252.56C65.3134 267.163 76.5759 279 90.4691 279H97.0002L115.035 249.016L97.0002 222.774H65.3134Z" fill="#5F05A7"/>
<path d="M97.004 222.774V279H103.535C117.428 279 128.691 267.163 128.691 252.56V222.774H97.004Z" fill="#2D0390"/>
</svg>
