<svg width="270" height="187" viewBox="0 0 270 187" fill="none" xmlns="http://www.w3.org/2000/svg">
<ellipse cx="139.333" cy="159.323" rx="117.123" ry="15.2314" fill="#6E17B7" fill-opacity="0.4"/>
<path d="M67.4289 88.1797C67.4289 88.1797 72.3875 88.1256 75.8722 88.5594C79.3284 88.9049 83.429 87.2867 83.429 87.2867C83.429 87.2867 86.5422 84.1349 89.16 80.3631C91.6887 76.6201 95.6111 74.0578 95.6111 74.0578C95.6111 74.0578 96.3249 74.0386 96.1043 75.1826C95.8837 76.3266 95.5047 76.5567 95.1449 76.9656C94.7852 77.3744 93.8875 78.2497 93.8875 78.2497C93.8875 78.2497 96.0892 77.1479 97.6959 76.336C99.3026 75.524 100.781 75.5336 101.134 75.7121C101.458 75.8023 101.865 76.4511 101.473 77.0654C101.081 77.6796 100.664 77.9119 100.664 77.9119C100.664 77.9119 101.552 77.9176 101.723 78.4474C101.894 78.9772 101.292 79.8544 100.725 80.2325C100.159 80.6107 96.8566 82.2634 96.2297 82.7586C95.6027 83.2538 94.2848 84.6551 94.2848 84.6551C94.2848 84.6551 95.9235 83.6377 96.6075 83.3191C97.2915 83.0004 101.081 81.9618 101.344 82.1691C101.608 82.3764 100.751 83.9959 99.65 84.5468C98.5492 85.0977 96.6807 85.6874 96.6807 85.6874L94.1393 86.945C94.1393 86.945 92.159 89.3406 90.2565 90.1506C88.3541 90.9606 86.5261 90.4788 86.5261 90.4788C86.5261 90.4788 76.7795 96.8478 71.0437 99.1896C65.3079 101.531 61.7911 101.303 61.7911 101.303C61.7911 101.303 57.9774 92.1128 67.4289 88.1797Z" fill="url(#paint0_linear)"/>
<path d="M71.2139 88.1856C71.2139 88.1856 65.2976 92.0102 67.4476 97.7511C67.4476 97.7511 70.8934 99.2624 74.7621 97.2316C74.7621 97.2316 69.4612 100.026 62.4175 100.45C62.4175 100.45 60.9284 86.2492 71.2139 88.1856Z" fill="url(#paint1_linear)"/>
<path d="M91.4546 77.9411C91.4546 77.9411 87.1472 79.5286 85.8362 80.3426C84.5252 81.1566 82.6729 82.7308 82.6729 82.7308C82.6729 82.7308 84.354 80.6267 86.1709 79.5516C88.1054 78.5361 91.4546 77.9411 91.4546 77.9411Z" fill="url(#paint2_linear)"/>
<path d="M92.2207 82.6836C92.2207 82.6836 92.3474 83.8361 90.5756 84.5043C85.8869 86.2724 84.3966 87.4007 84.3966 87.4007C84.3966 87.4007 84.5222 86.6982 86.3391 85.6231C88.2736 84.6076 92.2207 82.6836 92.2207 82.6836Z" fill="url(#paint3_linear)"/>
<path d="M76.5021 90.8329C76.5021 90.8329 79.4302 91.5633 80.4709 91.4818C81.3382 91.4139 86.6226 90.9131 87.3851 90.5917C88.1476 90.2703 87.6925 88.7356 85.7484 88.3644C83.7116 87.9132 81.2833 88.1032 81.2833 88.1032L76.5021 90.8329Z" fill="url(#paint4_linear)"/>
<path d="M85.1582 77.6367L82.052 80.2015C82.052 80.2015 83.6051 78.9191 85.2438 77.9017L85.1582 77.6367Z" fill="url(#paint5_linear)"/>
<path d="M60.4243 83.3668C60.4243 83.3668 64.7952 91.4018 66.7949 93.8341C67.1607 94.1679 67.3829 94.4382 67.6307 94.4621C68.9483 94.7885 74.5487 98.2157 74.5487 98.2157L75.5318 100.798C78.9789 103.271 83.8305 103.79 83.8305 103.79L84.5327 102.813L83.4373 102.757C83.0048 101.62 82.6372 100.341 82.2696 99.0615C80.748 94.4365 81.1694 89.8998 81.1694 89.8998L82.1312 88.3508C82.1312 88.3508 82.4795 86.4441 81.6831 85.9193C80.8867 85.3945 79.4923 85.807 79.4923 85.807C76.4758 83.5253 73.6147 80.7112 71.2885 78.0483C64.3397 73.3252 57.5008 73.2781 57.5008 73.2781L56.652 75.9511L60.4243 83.3668Z" fill="url(#paint6_linear)"/>
<path opacity="0.5" d="M65.8806 93.2791C66.2736 93.6196 66.5108 93.8968 66.7816 93.9162C68.2171 94.2274 74.2727 97.6807 74.2727 97.6807L75.2909 100.356C79.0101 102.861 84.3111 103.293 84.3111 103.293L85.1021 102.257L83.9038 102.223C83.4558 101.046 83.0821 99.7181 82.7083 98.3901L82.2339 97.8356C82.2339 97.8356 76.815 101.246 76.3962 95.6471C76.0996 90.3692 79.4384 85.3001 79.8506 84.6531C74.9756 90.1844 74.3041 95.3408 74.3041 95.3408C74.3041 95.3408 72.054 92.8893 70.8585 89.0563C69.7038 85.3302 71.0233 77.1494 71.1719 76.8477C64.8878 73.7719 60.9734 72.9405 60.9734 72.9405L55.7012 73.036L65.8806 93.2791Z" fill="url(#paint7_linear)"/>
<path d="M19.8186 106.573C19.8186 106.573 37.0939 121.483 52.0918 134.731L53.5998 136.048C54.2792 136.625 54.9586 137.202 55.5557 137.855C56.4589 138.676 57.3622 139.498 58.2655 140.32L58.564 140.646C62.9312 144.592 66.7682 148.123 69.4704 150.745C69.4704 150.745 85.0425 145.789 100.094 125.728C100.094 125.728 87.7007 115.491 81.7376 108.811C81.2898 108.321 80.9166 107.914 80.6257 107.431C78.402 104.67 76.2911 101.208 74.2549 97.8269C71.6446 93.323 69.2658 88.9069 67.3559 86.1594C64.1332 81.3169 61.0062 77.7351 61.0062 77.7351L59.0695 72.3153C59.0695 72.3153 43.0668 74.8186 36.1659 77.6855C29.3395 80.6339 25.7513 81.669 25.7513 81.669C25.7513 81.669 23.5811 90.6958 19.8186 106.573Z" fill="url(#paint8_linear)"/>
<path d="M20.3451 71.6351C20.3451 71.6351 24.2912 77.7636 25.5829 85.1217C25.5829 85.1217 37.6873 86.7837 41.3674 83.8668C45.0476 80.9498 42.7645 77.7946 42.7645 77.7946C42.7645 77.7946 39.4193 75.4611 37.3372 73.021C35.3373 70.5056 23.1506 68.9189 23.1506 68.9189C23.1506 68.9189 20.9077 69.772 20.3451 71.6351Z" fill="url(#paint9_linear)"/>
<path d="M39.8827 75.6318C39.8827 75.6318 39.9612 78.856 35.2744 79.8472C28.9208 81.1647 22.3586 75.4816 22.3586 75.4816L20.3377 71.7869L38.8225 74.8038L39.8827 75.6318Z" fill="#D35950"/>
<path opacity="0.5" d="M52.0925 134.733L53.6005 136.05L55.5564 137.856L58.1916 140.24L58.4901 140.566C71.8595 140.472 89.6496 130.341 90.3003 129.895C77.1931 135.892 64.5797 134.996 64.5797 134.996C76.9884 125.592 80.6264 113.874 81.746 108.655C81.2982 108.166 80.925 107.758 80.6341 107.275C78.4103 104.515 76.2995 101.053 74.2633 97.6717L68.9564 111.366L63.0468 116.472L66.6102 104.672C52.7758 112.683 39.5576 111.291 39.5576 111.291L44.4835 123.115L52.0925 134.733Z" fill="url(#paint10_linear)"/>
<path d="M8.88183 52.0065C8.88183 52.0065 9.89042 45.8401 15.7752 42.8541C21.6599 39.8681 30.2296 41.4675 32.2218 44.1397C34.0571 46.8056 35.5459 51.7361 37.2032 53.2165C38.8605 54.6968 40.3628 54.5211 41.9895 56.6288C43.6162 58.7364 44.4715 68.5911 42.0985 72.1103C39.6508 75.5479 31.592 77.9757 26.513 75.7301C21.1278 73.3152 14.6804 65.2797 12.3744 62.595C9.99371 59.8287 8.40913 53.6374 8.88183 52.0065Z" fill="url(#paint11_linear)"/>
<path d="M32.2222 44.1416C32.2222 44.1416 21.553 48.5078 19.7388 53.4634C17.9246 58.4191 19.823 64.6229 22.2534 69.591C24.6762 74.7159 28.6051 76.3655 29.7036 76.4094C29.7036 76.4094 25.8474 76.4911 20.4277 71.5607L12.7058 60.6461L10.7596 50.5906L25.6466 43.5647L29.7879 42.4731C29.7879 42.4731 31.3419 42.8494 32.2222 44.1416Z" fill="url(#paint12_linear)"/>
<path d="M20.7795 70.7876C20.7795 70.7876 20.5461 72.3496 17.9664 73.6606C15.1474 75.0408 10.8453 72.9834 10.5946 70.0665C10.21 66.6728 14.336 65.8949 16.0622 65.9639C17.5568 65.945 20.7891 68.981 20.7795 70.7876Z" fill="url(#paint13_linear)"/>
<path d="M18.7417 69.0592C18.7417 69.0592 16.3588 67.9425 11.3939 69.787C11.3939 69.787 13.1357 69.5423 13.9127 69.7305C13.9127 69.7305 14.7013 72.905 16.3454 73.0493L16.1368 72.491C16.2938 72.4972 20.428 71.5624 18.7417 69.0592Z" fill="url(#paint14_linear)"/>
<path d="M6.50432 58.8258C8.91562 60.9648 13.1718 63.9631 15.0377 66.0018C15.0377 66.0018 16.9438 65.6066 18.5858 67.4006C18.5858 67.4006 16.2663 63.3797 15.9486 60.2245C15.631 57.0692 16.5055 56.8685 15.342 54.9364C14.6856 53.8889 12.7451 51.7687 12.7451 51.7687C12.7451 51.7687 21.4238 49.5228 25.9116 46.1667C30.0778 42.9549 30.0185 42.5597 29.9438 42.4781L31.6987 43.5696C31.6987 43.5696 32.9714 41.6563 31.1897 37.8926C31.1897 37.8926 33.2431 39.3102 33.8823 42.3212C33.9723 42.0891 34.4852 38.0242 31.0137 35.0573C31.0137 35.0573 27.0197 37.9617 21.0545 39.3732C15.0148 40.7032 9.08602 42.9804 7.82104 44.7369C7.40193 45.2701 7.36367 46.0542 7.40003 46.9198C7.54738 48.7327 8.38938 50.809 8.26881 51.6684C8.05064 52.9167 4.40114 55.2064 4.80303 56.6366C4.78006 57.1071 5.5264 57.9226 6.50432 58.8258Z" fill="url(#paint15_linear)"/>
<path d="M36.0066 137.309C40.2091 141.406 44.7677 141.43 44.7677 141.43L46.2489 140.076L44.8806 140.728C39.9087 129.845 47.181 122.593 47.181 122.593L47.9809 122.311C47.9139 122.072 47.5943 120.567 46.7351 120.454C45.8012 120.259 45.8299 121.282 45.8299 121.282C45.6059 121.037 45.4567 120.874 45.2328 120.63C42.8521 117.863 40.5556 113.372 39.8323 112.086C39.7576 112.004 39.683 111.923 39.7653 111.848C39.6906 111.766 39.6983 111.609 39.6983 111.609C27.9767 102.106 21.2077 107.1 21.2077 107.1C21.3532 110.562 22.9703 114.476 24.9089 118.246L24.9835 118.328L25.0582 118.409C25.4237 118.974 25.6323 119.532 25.9978 120.097C25.9978 120.097 25.9978 120.097 26.0725 120.178C30.5621 128.057 36.5999 134.819 36.5999 134.819L36.0066 137.309Z" fill="url(#paint16_linear)"/>
<path d="M40.4873 76.1317L42.401 75.5796C42.401 75.5796 48.6341 81.5638 48.6474 89.3422C48.6474 89.3422 36.0455 91.4313 25.5831 85.1211C25.5831 85.1211 38.629 86.8207 42.0565 82.6366C44.8851 79.4499 40.4873 76.1317 40.4873 76.1317Z" fill="url(#paint17_linear)"/>
<path d="M33.8117 47.03C33.8117 47.03 33.8137 45.38 32.5141 44.6209C32.5141 44.6209 30.8585 47.9335 31.714 51.3464C31.6394 51.2648 31.515 48.9812 33.8117 47.03Z" fill="url(#paint18_linear)"/>
<path d="M24.846 50.2845C24.846 50.2845 29.2341 55.4094 30.3441 58.4392C30.3441 58.4392 26.6333 61.9834 22.8231 61.1241C22.8231 61.1241 20.1879 58.7405 19.6138 57.6176C19.6138 57.6176 23.38 51.3258 24.846 50.2845Z" fill="#FFA490"/>
<path d="M33.8106 47.0306C33.8106 47.0306 35.9865 52.3813 37.2036 53.2156C37.2036 53.2156 37.1998 56.5151 36.2659 56.3207C35.2497 56.2015 32.5551 53.4227 31.7131 51.3464C31.6385 51.2648 31.493 47.8022 33.8106 47.0306Z" fill="#FFA490"/>
<path d="M24.8471 50.2848C24.8471 50.2848 25.4805 51.8028 24.4701 53.1766C23.5343 54.6319 21.0291 56.0246 19.6972 57.5427C19.6149 57.6179 20.3441 53.9545 24.8471 50.2848Z" fill="url(#paint19_linear)"/>
<path d="M31.5291 61.5537C31.5291 61.5537 31.9904 56.9362 34.2259 56.2398C36.4538 55.7002 38.3199 57.7392 38.3199 57.7392C38.3199 57.7392 34.7063 60.8949 31.5291 61.5537Z" fill="#FFA490"/>
<path d="M36.1912 56.2412C36.1912 56.2412 37.9846 56.5485 38.3348 57.4269C38.6851 58.3052 37.9654 60.1622 36.5816 61.1284C36.5816 61.1284 38.7368 58.8573 37.9387 57.4896C37.3491 56.6803 36.1912 56.2412 36.1912 56.2412Z" fill="#D16365"/>
<path d="M31.5307 61.5539C31.5307 61.5539 32.905 62.3946 36.6583 61.2088C36.6583 61.2088 38.9398 59.5713 38.0153 57.57C37.8584 57.5637 36.5128 57.7457 31.5307 61.5539Z" fill="url(#paint20_linear)"/>
<path d="M32.1489 61.7362C32.1489 61.7362 33.6303 60.381 35.0639 61.617C35.0639 61.617 33.7031 62.1126 32.1489 61.7362Z" fill="#CB5254"/>
<path d="M33.2644 53.3736C33.2644 53.3736 32.5562 51.7738 32.7591 50.839C33.0442 49.8289 34.4338 50.3559 34.4338 50.3559C34.4338 50.3559 33.094 52.031 33.2644 53.3736Z" fill="url(#paint21_linear)"/>
<path d="M23.2276 59.2581C23.2276 59.2581 23.3022 59.3397 23.6085 59.5091C24.1463 59.7663 25.065 60.2745 26.3206 60.3246C26.6345 60.3372 27.0307 60.2744 27.4269 60.2117C27.7408 60.2242 28.0624 60.0799 28.3093 59.8541C29.0347 59.4902 29.5284 59.0385 29.7007 58.7311C29.783 58.6558 29.7084 58.5742 29.7907 58.4989L29.7983 58.3421C29.7466 57.79 29.2471 56.7485 28.5753 56.0145C28.1274 55.5252 27.7541 55.1174 27.2086 55.017C27.2086 55.017 26.5656 55.3056 25.9072 55.9079C25.0095 56.5792 24.0142 57.6395 23.3175 59.026C23.3175 59.026 23.3099 59.1828 23.2276 59.2581Z" fill="#FFEDD1"/>
<path d="M34.7504 55.1618C34.8997 55.3249 35.1313 55.4128 35.2806 55.5759C35.5122 55.6637 35.6615 55.8268 35.9754 55.8393C35.9754 55.8393 35.9754 55.8393 36.0501 55.9209C37.1487 55.9648 36.6798 54.296 36.0386 52.9346C35.7476 52.4515 35.5313 52.05 35.3897 51.7301C35.0988 51.247 35.0318 51.0086 35.0318 51.0086C35.0318 51.0086 34.6738 50.2871 34.1054 50.6573C33.9408 50.8079 33.6862 51.1906 33.5063 51.6548C33.3264 52.1191 33.2211 52.6649 33.2652 53.3738C33.2652 53.3738 33.9217 54.4215 34.7504 55.1618Z" fill="#FFEDD1"/>
<path d="M23.6096 59.5087C24.1474 59.7659 25.0661 60.2741 26.3217 60.3242C26.6356 60.3368 27.0318 60.2741 27.428 60.2113C27.5926 60.0607 27.7649 59.7533 27.8472 59.678C27.8548 59.5212 27.8625 59.3644 27.9524 59.1322C27.9084 58.4233 27.3419 57.1434 26.4461 56.1647C26.2968 56.0016 26.1399 55.9953 25.9083 55.9075C25.0106 56.5788 24.0153 57.6391 23.3186 59.0256C23.3933 59.1072 23.5426 59.2703 23.6096 59.5087C23.5349 59.4271 23.6096 59.5087 23.6096 59.5087Z" fill="#5E4F52"/>
<path d="M34.7499 55.1618C34.8992 55.3249 35.1308 55.4127 35.2801 55.5759C35.617 55.1179 35.2074 53.8443 34.7078 52.8028C34.4169 52.3198 34.1336 51.6799 33.835 51.3536C33.6781 51.3473 33.7451 51.5857 33.5881 51.5795C33.5058 51.6548 33.5058 51.6548 33.4235 51.7301C33.2436 52.1943 33.1383 52.7401 33.1824 53.4491C33.2647 53.3738 33.9212 54.4215 34.7499 55.1618Z" fill="#5E4F52"/>
<path d="M23.2298 59.2581C23.2298 59.2581 23.27 56.8239 24.3552 55.5315C25.4481 54.0822 26.8376 54.6092 26.8376 54.6092C26.8376 54.6092 24.4739 56.3219 23.2298 59.2581Z" fill="url(#paint22_linear)"/>
<path d="M22.9745 59.6419C22.9745 59.6419 23.8377 56.4549 26.6053 54.5225C26.6053 54.5225 28.0714 53.481 27.7556 55.1185L27.2924 54.9428C25.9163 55.7522 24.2473 57.7284 22.9745 59.6419Z" fill="#392F51"/>
<path d="M33.2641 53.3705C33.2641 53.3705 32.9234 50.6854 34.7627 50.0517C35.4058 49.7631 35.1054 51.0868 35.1054 51.0868C35.1054 51.0868 34.9637 50.7669 34.7321 50.679C34.5005 50.5912 33.7598 51.2688 33.6622 51.6577C33.3101 52.4294 33.2641 53.3705 33.2641 53.3705Z" fill="#392F51"/>
<path d="M27.9625 57.3229C28.0294 57.561 27.8574 57.8679 27.5363 58.012C27.2152 58.1561 26.8196 58.2188 26.7527 57.9807C26.6858 57.7427 26.8578 57.4357 27.1789 57.2916C27.5 57.1475 27.8134 57.16 27.9625 57.3229Z" fill="white"/>
<path d="M35.5591 53.071C35.626 53.309 35.5362 53.5408 35.2973 53.6097C35.0584 53.6786 34.745 53.6661 34.6781 53.428C34.6112 53.19 34.701 52.9582 34.9399 52.8893C35.1788 52.8204 35.4101 52.9081 35.5591 53.071Z" fill="white"/>
<path d="M40.9739 64.0323C40.9739 64.0323 40.2765 65.1564 37.602 66.8105C35.0175 68.5288 33.3913 68.6859 33.3913 68.6859C33.3913 68.6859 35.6223 72.5714 38.232 71.008C40.7769 69.5355 41.244 64.2248 40.9739 64.0323Z" fill="#D35950"/>
<path d="M49.8823 94.653C49.8823 94.653 35.4642 96.9052 24.6631 86.2604L25.264 83.6132L25.5759 85.2755C25.5759 85.2755 32.7735 90.8269 48.6403 89.4966L49.8823 94.653Z" fill="url(#paint23_linear)"/>
<path d="M49.8809 94.655C49.8809 94.655 51.3737 83.4014 42.4748 75.6609C42.4748 75.6609 51.3794 84.8944 46.8017 94.9248L49.8809 94.655Z" fill="url(#paint24_linear)"/>
<path d="M55.2083 90.233L49.2233 95.2583C49.2233 95.2583 53.2982 93.9282 55.2083 90.233Z" fill="url(#paint25_linear)"/>
<path d="M44.6362 74.8822C44.6362 74.8822 53.2001 81.4309 54.5569 90.6772L49.807 94.5727C49.807 94.5727 51.2022 83.708 42.401 75.5786L44.6362 74.8822Z" fill="url(#paint26_linear)"/>
<path d="M29.6183 60.4565C30.3207 60.5631 28.9273 63.3362 27.155 64.2082C25.2257 65.074 22.3796 63.7816 22.4772 63.3927C22.6648 62.7716 27.7426 60.2244 29.6183 60.4565Z" fill="#FFA490"/>
<path d="M39.4132 54.6408C39.4132 54.6408 38.2686 55.538 38.6036 56.73C39.0132 58.0036 42.4737 57.9847 42.4737 57.9847C42.4737 57.9847 41.8114 55.4439 39.4132 54.6408Z" fill="#FFA490"/>
<path opacity="0.83" d="M6.50491 58.8231C8.91621 60.9621 13.1724 63.9604 15.0383 65.9991C15.0383 65.9991 16.9444 65.6038 18.5863 67.3978C18.5863 67.3978 16.2669 63.377 15.9492 60.2217C15.6315 57.0665 16.5061 56.8657 15.3426 54.9337C14.6862 53.8861 12.7456 51.7659 12.7456 51.7659C12.7456 51.7659 21.4244 49.5201 25.9122 46.164C30.0784 42.9521 30.0191 42.5569 29.9444 42.4754L31.6993 43.5668C31.6993 43.5668 32.972 41.6536 31.1903 37.8899C31.1903 37.8899 29.0411 41.6537 22.1555 44.2069C15.2699 46.7601 10.8128 49.4889 10.8128 49.4889C10.8128 49.4889 8.62349 49.2443 7.47525 46.9987C7.6226 48.8115 8.4646 50.8879 8.34403 51.7472C8.34403 51.7472 9.22629 51.3897 10.8396 52.1612C12.916 53.1083 13.2585 54.1433 13.2585 54.1433C13.2585 54.1433 9.15926 57.5936 6.50491 58.8231Z" fill="url(#paint27_linear)"/>
<path opacity="0.5" d="M19.8188 106.574C19.8188 106.574 28.1206 100.778 37.0482 109.541C37.0482 109.541 27.8336 103.438 21.0589 106.938L21.103 107.647L19.8188 106.574Z" fill="url(#paint28_linear)"/>
<path opacity="0.2" d="M36.007 137.312C40.2095 141.408 44.7681 141.433 44.7681 141.433L46.2493 140.078L44.881 140.731C39.9092 129.848 47.1814 122.596 47.1814 122.596L47.9813 122.314L47.4895 121.115C47.4895 121.115 45.6867 122.615 43.8228 125.369C44.3701 123.819 44.9251 122.113 45.1585 120.551C42.7779 117.785 40.4814 113.293 39.758 112.007C40.4661 113.607 42.9252 119.598 42.1215 123.179C41.1301 127.382 38.0031 130.243 35.6262 130.619C33.5632 131.008 28.377 124.516 25.759 120.169C30.2486 128.047 36.2864 134.809 36.2864 134.809L36.007 137.312Z" fill="url(#paint29_linear)"/>
<path opacity="0.5" d="M58.8037 82.5977C58.8037 82.5977 58.507 93.5062 56.0957 97.8095C56.0957 97.8095 61.6169 92.6091 58.8037 82.5977Z" fill="url(#paint30_linear)"/>
<path d="M216.584 122.186C236.532 118.559 238.501 84.9514 237.137 78.0692L222.61 81.1968L216.584 122.186Z" fill="#626F8E"/>
<path d="M218.812 142.813C211.762 135.043 216.234 126.506 219.351 123.208C213.116 119.305 200.386 114.546 199.351 126.733C198.316 138.92 206.809 141.081 211.185 140.638L214.109 144.511L212.125 146.315C209.635 144.548 208.566 146.204 208.343 147.252L212.186 149.658L218.812 142.813Z" fill="#1E275F"/>
<path d="M176.039 69.1095L183.508 79.1313L188.273 75.0211L177.393 66.9485C176.718 63.2211 176.11 63.9546 174.749 63.1028C173.388 62.251 172.475 65.133 173.195 65.584C173.772 65.9447 175.332 68.0846 176.039 69.1095Z" fill="#1E275F"/>
<path d="M184.061 100.22C216.203 100.223 219.051 122.054 216.458 132.969C217.382 136.853 229.097 139.959 229.73 136.016C230.869 128.916 228.281 129.049 235.281 122.512C248.807 116.753 252.148 124.671 256.442 133.602C254.957 134.827 252.158 138.474 244.492 138.044C234.909 137.505 239.649 142.976 231.65 144.23C225.25 145.233 217.973 140.629 215.135 138.201C194.89 147.969 194.94 136.129 189.725 139.176C184.51 142.223 184.346 150.885 184.346 150.885L175.492 157.264L170.706 153.067C170.729 152.497 171.022 151.281 172.013 150.98C173.003 150.678 174.105 151.905 174.532 152.556C176.92 152.007 179.356 148.08 180.276 146.184C175.235 141.306 175.206 131.241 175.821 126.818C173.993 116.297 166.193 115.365 163.141 115.225L161.496 117.852C138.17 113.019 133.741 119.212 132.898 120.237C132.224 121.057 127.448 118.646 125.145 117.338C124.706 116.812 124.799 115.871 126.519 115.143C128.428 114.334 129.959 115.543 131.848 116.474L159.305 98.9499L184.061 100.22Z" fill="#625F79"/>
<path d="M208.331 78.7011C210.286 79.3799 212.345 77.116 213.059 76.3125C201.875 79.176 189.216 70.8469 184.285 66.3244C188.03 83.003 205.799 77.8217 208.331 78.7011Z" fill="#470D25" fill-opacity="0.4"/>
<path d="M187.403 73.6238C191.429 77.5399 203.988 78.421 209.764 78.3721L208.995 79.5993C205.686 77.5281 190.866 79.74 183.87 81.1048C182.094 78.3889 183.674 75.585 184.686 74.5226L187.403 73.6238Z" fill="#FFE9F3"/>
<path d="M209.489 79.166C209.489 79.166 207.905 78.9091 204.963 78.8399C185.175 77.3453 183.57 76.2048 184.549 74.6226C181.485 78.9811 184.037 81.135 184.037 81.135C193.447 79.0394 200.659 78.7387 204.963 78.8399C206.377 78.9467 207.884 79.0553 209.489 79.166Z" fill="#470D25" fill-opacity="0.4"/>
<path fill-rule="evenodd" clip-rule="evenodd" d="M241.322 138.13C242.825 134.57 245.364 128.694 245.625 128.634C245.906 128.569 243.054 126.925 241.594 126.111L244.394 125.559C243.335 124.342 241.142 122.255 238.934 121.212C239.935 120.935 240.869 120.749 241.743 120.648C242.72 120.651 243.769 120.653 244.843 120.656C250.621 121.458 253.207 126.855 256.094 132.878C256.21 133.119 256.325 133.36 256.442 133.602C256.258 133.753 256.055 133.941 255.825 134.154C254.192 135.665 251.212 138.421 244.492 138.044C243.195 137.971 242.161 138.008 241.322 138.13Z" fill="#FFE9F3"/>
<path opacity="0.4" d="M200.917 98.9047C203.363 91.5823 211.117 92.0683 214.688 93.2266C202.619 88.346 194.151 89.3839 191.426 90.5128C198.068 90.63 200.521 96.1563 200.917 98.9047Z" fill="#470D25"/>
<path d="M241.405 138.012C249.898 139.682 254.852 135.794 256.267 133.641C248.779 136.317 246.845 134.605 241.539 133.638C237.294 132.865 236.089 139.193 236.018 142.454C238.506 138.482 240.646 137.838 241.405 138.012Z" fill="#470D25" fill-opacity="0.4"/>
<path d="M199.774 118.169L200.674 119.697L203.149 115.327C203.593 114.657 203.952 113.995 204.183 113.501L203.149 115.327C202.253 116.681 201.01 118.068 199.774 118.169Z" fill="#470D25" fill-opacity="0.4"/>
<path d="M64.8848 152.367C64.8848 156.301 68.1174 159.528 72.0572 159.528H101.252C105.192 159.528 108.425 156.301 108.425 152.367V74.8083C108.425 70.8749 105.192 67.6475 101.252 67.6475H72.0572C68.1174 67.6475 64.8848 70.8749 64.8848 74.8083V152.367Z" fill="url(#paint31_linear)"/>
<path d="M222.523 94.6107C228.691 97.7433 231.716 110.39 218.799 118.395C225.781 123.617 222.872 133.711 215.773 137.887C223.105 142.876 218.682 159.468 205.649 159.468C151.301 159.468 152.582 159.584 152.232 159.584C134.66 159.584 129.656 153.783 129.656 153.783H108.476V70.9419H133.613C138.966 67.9252 151.185 47.041 162.241 36.5989C173.296 26.2728 173.064 5.50459 178.184 1.32775C183.305 -2.8491 192.033 2.95208 195.524 16.9909C199.015 31.0298 192.731 47.157 187.61 52.9582C183.654 57.4831 181.675 64.2125 180.977 66.881H214.842C222.872 66.881 229.389 73.3783 229.389 81.384V83.8205C229.505 88.1133 226.247 92.8703 222.523 94.6107Z" fill="url(#paint32_linear)"/>
<path fill-rule="evenodd" clip-rule="evenodd" d="M64.877 133.517V152.803C64.877 156.736 68.1096 159.964 72.0494 159.964H101.244C105.184 159.964 108.417 156.736 108.417 152.803V134.72C92.6651 135.829 77.9153 135.201 64.877 133.517Z" fill="#FD9E9E" fill-opacity="0.51"/>
<path fill-rule="evenodd" clip-rule="evenodd" d="M229.365 81.1611C190.439 115.576 146.892 130.109 108.467 134.084V154.22H129.647C129.647 154.22 134.651 160.021 152.224 160.021C152.25 160.021 152.267 160.021 152.298 160.019C152.689 160.005 155.325 159.905 205.64 159.905C218.674 159.905 223.096 143.314 215.764 138.325C222.863 134.148 225.773 124.054 218.79 118.833C231.708 110.827 228.682 98.1806 222.514 95.048C226.238 93.3077 229.497 88.5507 229.38 84.2578V81.8213C229.38 81.6001 229.375 81.38 229.365 81.1611Z" fill="#FD9E9E" fill-opacity="0.51"/>
<path d="M239.923 56.4749C238.9 53.6672 234.698 47.2144 226.076 43.865C226.782 43.4467 228.265 42.3902 228.552 41.5104C228.676 41.131 228.76 40.94 228.815 40.8596C228.848 40.8868 228.88 40.9137 228.911 40.9403C228.911 40.8399 228.888 40.7536 228.815 40.8596C227.269 39.5877 222.969 37.6983 217.312 39.75C216.887 39.7923 216.021 40.0923 215.957 40.9537C214.15 41.3646 210.291 42.4701 209.312 43.6047C208.089 45.023 204.318 48.4863 200.827 49.0764C197.336 49.6665 198.53 51.6755 198.439 52.3476C198.349 53.0197 200.149 64.6223 206.297 69.9431C212.446 75.2638 227.983 85.2906 241.233 82.4816L242.013 82.5078L240.762 79.5348C241.675 79.3135 243.574 78.7569 243.861 78.3008C244.219 77.7307 241.462 74.4078 241.751 72.9985C242.039 71.5892 242.336 65.4137 242.195 64.7945C242.053 64.1752 244.232 64.6163 246.754 62.8212C248.772 61.3852 249.826 60.5756 250.1 60.3504C249.35 58.797 246.266 55.8472 239.923 56.4749Z" fill="url(#paint33_linear)"/>
<path d="M214.454 58.0766L224.788 50.1615L225.719 49.5003L224.203 48.7842L225.592 47.4449L223.193 48.3068L223.751 47.1257L210.353 54.6942L198.728 50.2334C197.277 69.8043 217.908 79.3869 228.405 81.7319L232.659 80.5769C231.821 79.7323 230.572 78.4813 229.827 77.7532C230.756 78.3433 232.121 78.3711 232.777 78.2933C230.792 76.9149 230.28 75.8289 230.272 75.4582L216.12 63.2674L214.454 58.0766Z" fill="#EDCCDE"/>
<path d="M216.601 46.3834C217.178 46.1649 216.653 45.6115 216.318 45.3621C216.196 45.2638 215.715 45.016 215.22 44.2735C214.724 43.531 213.236 43.65 213.561 43.7797C213.822 43.8835 214.388 44.8459 214.639 45.3141C215.052 45.7616 216.024 46.6019 216.601 46.3834Z" fill="#150929"/>
<path d="M226.205 56.0718C225.973 54.9463 226.63 54.6985 226.988 54.7152C227.439 54.5996 227.553 54.712 228.355 56.9047C229.158 59.0975 231.084 60.157 230.861 60.5527C230.682 60.8692 230.295 60.4244 230.124 60.1625C228.138 58.3708 226.495 57.4786 226.205 56.0718Z" fill="#150929"/>
<path fill-rule="evenodd" clip-rule="evenodd" d="M206.576 55.717C206.644 55.7428 206.677 55.816 206.65 55.8806C206.396 56.4916 206.177 57.351 206.31 57.9737C206.375 58.2796 206.522 58.5137 206.777 58.6442C207.037 58.7768 207.436 58.8166 208.037 58.6722L208.231 58.6254L208.198 58.815C208.136 59.1751 208.114 59.5968 208.172 59.9982C208.23 60.4006 208.367 60.7722 208.611 61.0434C208.851 61.3104 209.205 61.4906 209.725 61.4993C210.25 61.508 210.947 61.3413 211.862 60.902C211.926 60.8709 212.005 60.896 212.038 60.9582C212.07 61.0203 212.044 61.096 211.979 61.1271C211.045 61.576 210.304 61.7608 209.72 61.7511C209.131 61.7412 208.705 61.5329 208.412 61.2078C208.123 60.887 207.974 60.4629 207.912 60.0327C207.859 59.6693 207.868 59.294 207.911 58.9575C207.373 59.0611 206.96 59.0226 206.654 58.8663C206.309 58.69 206.128 58.3783 206.052 58.0243C205.903 57.327 206.147 56.41 206.406 55.7873C206.433 55.7227 206.509 55.6912 206.576 55.717Z" fill="#321A27"/>
<path d="M215.454 64.6422C223.543 72.2038 232.615 71.8849 236.14 70.7803C226.886 74.3569 218.339 68.2132 215.223 64.6943C215.18 64.5092 215.359 64.5824 215.454 64.6422Z" fill="#150929"/>
<path d="M214.982 66.7155C217.605 71.8356 222.109 73.2612 224.033 73.334C218.862 73.4748 215.762 68.9704 214.859 66.7006C214.871 66.6023 214.946 66.6696 214.982 66.7155Z" fill="#150929"/>
<path d="M205.162 55.4193C202.56 48.8009 204.864 43.4609 206.342 41.6182C202.062 46.2957 203.715 52.8519 205.077 55.5454C205.177 55.6147 205.175 55.4902 205.162 55.4193Z" fill="#150929"/>
<path d="M203.844 55.1743C201.413 52.4107 201.622 49.3962 202.03 48.2344C200.732 51.2779 202.685 54.1802 203.824 55.2509C203.886 55.2669 203.863 55.2065 203.844 55.1743Z" fill="#150929"/>
<path d="M213.512 66.5013C217.122 73.8277 223.06 76.4027 225.578 76.7744C218.823 76.2324 214.612 69.6748 213.351 66.4637C213.363 66.3319 213.463 66.4338 213.512 66.5013Z" fill="#150929"/>
<path d="M241.334 60.0799C241.334 60.0799 247.461 57.9495 250.078 60.2641C250.078 60.2641 246.345 63.5699 244.826 63.7179C243.306 63.8659 242.103 63.5286 242.103 63.5286C242.103 63.5286 243.204 62.1673 241.334 60.0799Z" fill="#FF859B"/>
<path d="M242.474 62.7444C242.474 62.7444 247.351 59.5557 249.763 60.5806L250.106 60.2355C250.106 60.2355 248.02 57.6862 241.139 60.0568L242.474 62.7444Z" fill="#DF6782"/>
<path opacity="0.5" d="M238.612 62.4521L241.859 72.6045C241.859 72.6045 242.266 65.6178 242.132 64.1151L238.612 62.4521Z" fill="#C5738C"/>
<path d="M218.775 57.5712C218.113 58.3566 217.769 59.3111 217.904 60.3586C218.246 62.857 220.635 65.3694 222.883 65.429C223.444 65.4439 224.987 64.762 225.944 63.3821C226.359 62.831 226.615 62.1954 226.673 61.4341C226.98 58.712 225.395 56.1405 223.236 55.7621C221.595 55.5179 219.81 56.2736 218.775 57.5712Z" fill="#F2C23F"/>
<path d="M219.627 57.3936C218.207 58.7424 218.151 60.9565 219.501 62.3752C220.85 63.794 223.065 63.8499 224.484 62.5011C225.903 61.1523 225.959 58.9382 224.61 57.5195C223.26 56.1007 221.046 56.0448 219.627 57.3936Z" fill="#321A27"/>
<path d="M223.667 59.8451C223.422 60.0781 223.412 60.4764 223.645 60.7215C223.878 60.9665 224.276 60.9766 224.521 60.7436C224.766 60.5106 224.777 60.1122 224.543 59.8672C224.27 59.6609 223.912 59.6121 223.667 59.8451Z" fill="white"/>
<path opacity="0.5" d="M218.745 57.5379C218.083 58.3241 217.74 59.2805 217.878 60.3311C218.226 62.837 220.627 65.3614 222.88 65.4258C223.443 65.442 224.988 64.7615 225.944 63.3799C225.821 63.4972 224.852 63.6305 223.403 63.589C221.874 63.5453 220.17 62.329 219.082 60.5266C218.109 59.0092 218.534 57.9747 218.745 57.5379Z" fill="#A26578"/>
<path d="M209.245 47.5521C208.366 48.1987 207.819 49.1156 207.626 49.9753C207.481 50.5572 207.436 51.0867 207.517 51.4879C207.571 51.8392 207.751 52.0623 207.928 52.0336C208.385 52.0498 209.116 51.7334 209.845 51.2911C211.581 50.1998 213.509 48.2488 213.347 47.3205C213.238 46.6178 211.916 46.2913 210.328 46.9267C209.949 47.06 209.597 47.2431 209.245 47.5521Z" fill="#F2C23F"/>
<path d="M209.02 48.0567C208.011 48.8686 207.822 50.1575 208.264 50.7191C208.707 51.2808 209.663 50.8886 210.672 50.0767C211.681 49.2648 212.713 48.1661 212.27 47.6044C211.828 47.0427 210.287 47.037 209.02 48.0567Z" fill="#321A27"/>
<path d="M211.22 49.1709C211.063 48.8674 211.181 48.4935 211.485 48.3358C211.788 48.1781 212.162 48.2964 212.32 48.5999C212.478 48.9034 212.359 49.2773 212.056 49.4349C211.752 49.5926 211.378 49.4744 211.22 49.1709Z" fill="white"/>
<path opacity="0.5" d="M209.231 47.5584C208.355 48.2029 207.812 49.1181 207.621 49.9767L207.515 51.4878C207.57 51.839 207.75 52.0622 207.926 52.0339C208.381 52.0509 209.109 51.7361 209.835 51.2955C209.633 51.2739 208.822 51.062 208.586 50.362C208.323 49.612 208.232 48.4566 210.308 46.9355C209.931 47.068 209.58 47.2503 209.231 47.5584Z" fill="#A26578"/>
<path d="M208.484 55.2909C208.123 55.1859 208.222 56.7289 208.602 57.3092C209.019 57.8483 210.803 57.819 210.994 57.6134C211.184 57.4077 209.207 55.501 208.484 55.2909Z" fill="#321A27"/>
<path d="M208.484 55.2907C208.484 55.2907 209.758 55.4002 210.416 56.0093C211.075 56.6185 211.035 57.6513 211.035 57.6513C211.035 57.6513 209.24 56.3721 208.484 55.2907Z" fill="#513D48"/>
<path d="M209.642 56.5151C209.528 56.6385 210.347 57.3207 210.462 57.1973C210.576 57.0739 209.756 56.3917 209.642 56.5151Z" fill="#7C6D75"/>
<path d="M240.975 79.5662C241.749 79.2848 243.406 78.6631 243.847 78.4277C236.411 78.1305 223.66 81.6434 205.195 69.3147C221.717 84.8838 237.65 83.3092 241.972 82.3937L240.975 79.5662Z" fill="#855B68" fill-opacity="0.7"/>
<path d="M250.105 60.3255C249.243 58.717 246.013 55.6997 239.988 56.4977C242.227 56.7395 247.385 57.8437 250.105 60.3255Z" fill="#FFFFC9"/>
<path d="M228.241 40.4934C228.468 40.6226 228.67 40.7494 228.844 40.8697C228.702 40.7389 228.497 40.6129 228.241 40.4934C226.08 39.2647 221.635 37.8286 217.133 39.8087C220.501 38.967 226.129 39.5087 228.241 40.4934Z" fill="#FFFFC9"/>
<path d="M208.427 61.1465C202.14 63.5646 204.598 60.542 206.613 58.7285H207.822L208.427 61.1465Z" fill="#321A27"/>
<path d="M204.459 70.0523C203.489 63.7073 198.839 53.9144 187.999 65.5026C189.356 68.3084 194.546 73.1464 204.459 70.0523Z" fill="#5E5068"/>
<path d="M232.747 94.3094C236.527 89.1209 240.121 78.8936 224.263 79.4929C223.25 82.44 223.529 89.5294 232.747 94.3094Z" fill="#625F79"/>
<path d="M67.7111 119.085C67.7111 119.085 68.1306 116.393 68.5634 115.556C68.924 114.858 71.194 110.639 71.7287 110.118C72.2634 109.596 73.3801 110.513 73.007 112.26C72.6679 114.113 71.6581 116.066 71.6581 116.066L67.7111 119.085Z" fill="url(#paint34_linear)"/>
<path d="M49.4199 122.325C49.4199 122.325 52.591 122.345 56.7429 122.862C60.8608 123.274 65.7465 121.346 65.7465 121.346C65.7465 121.346 69.4557 117.591 72.5747 113.097C75.5875 108.637 82.3784 103.537 82.3784 103.537C82.3784 103.537 83.219 103.962 82.9562 105.325C82.6934 106.688 80.1341 108.561 79.7054 109.049C79.2768 109.536 78.2073 110.579 78.2073 110.579C78.2073 110.579 80.8305 109.266 82.7448 108.298C84.6591 107.331 86.4208 107.342 86.8411 107.555C87.2275 107.663 87.7117 108.436 87.2449 109.167C86.7781 109.899 86.2815 110.176 86.2815 110.176C86.2815 110.176 87.3385 110.183 87.5425 110.814C87.7464 111.445 87.0292 112.49 86.3544 112.941C85.6795 113.392 81.7449 115.361 80.9979 115.951C80.2509 116.541 78.6806 118.21 78.6806 118.21C78.6806 118.21 80.6331 116.998 81.4481 116.618C82.263 116.239 85.3703 115.699 85.6845 115.946C85.9987 116.193 85.2434 117.483 83.9318 118.139C82.6203 118.796 81.4911 118.928 81.4911 118.928L78.5073 120.939C78.5073 120.939 76.1478 123.793 73.8812 124.758C71.6145 125.723 69.4366 125.149 69.4366 125.149C69.4366 125.149 57.8239 132.737 50.99 135.527C44.1561 138.318 39.966 138.045 39.966 138.045C39.966 138.045 38.1588 127.011 49.4199 122.325Z" fill="url(#paint35_linear)"/>
<path d="M49.4187 122.324C49.4187 122.324 43.2225 127.812 45.784 134.652C45.784 134.652 49.7832 136.148 54.3926 133.728C54.3926 133.728 48.1831 137.362 39.7909 137.868C39.7909 137.868 37.9159 126.623 49.4187 122.324Z" fill="url(#paint36_linear)"/>
<path fill-rule="evenodd" clip-rule="evenodd" d="M196.522 26.0643C184.351 29.0398 172.358 33.1589 160.69 38.1133C161.206 37.588 161.721 37.0823 162.232 36.5989C168.756 30.5057 171.349 20.7767 173.431 12.9661C174.877 7.5401 176.077 3.03994 178.176 1.32775C183.296 -2.8491 192.024 2.95208 195.516 16.9909C196.254 19.9611 196.555 23.0247 196.522 26.0643Z" fill="white" fill-opacity="0.33"/>
<path fill-rule="evenodd" clip-rule="evenodd" d="M107.841 72.0106C91.7497 83.2872 77.2199 95.2627 64.876 106.639V74.8083C64.876 70.8749 68.1086 67.6475 72.0485 67.6475H101.243C104.191 67.6475 106.743 69.4537 107.841 72.0106Z" fill="white" fill-opacity="0.33"/>
<defs>
<linearGradient id="paint0_linear" x1="83.5712" y1="95.0527" x2="78.2316" y2="78.5352" gradientUnits="userSpaceOnUse">
<stop stop-color="#FFA98E"/>
<stop offset="1" stop-color="#FFC5A4"/>
</linearGradient>
<linearGradient id="paint1_linear" x1="67.9699" y1="100.088" x2="64.6371" y2="89.7782" gradientUnits="userSpaceOnUse">
<stop stop-color="#FFA88C"/>
<stop offset="1" stop-color="#E8868D"/>
</linearGradient>
<linearGradient id="paint2_linear" x1="87.326" y1="81.288" x2="86.6716" y2="79.2634" gradientUnits="userSpaceOnUse">
<stop stop-color="#FFA88C"/>
<stop offset="1" stop-color="#E8868D"/>
</linearGradient>
<linearGradient id="paint3_linear" x1="87.4942" y1="87.3595" x2="86.8398" y2="85.335" gradientUnits="userSpaceOnUse">
<stop stop-color="#FFA88C"/>
<stop offset="1" stop-color="#E8868D"/>
</linearGradient>
<linearGradient id="paint4_linear" x1="85.4707" y1="96.268" x2="91.6108" y2="101.566" gradientUnits="userSpaceOnUse">
<stop stop-color="#FFB598"/>
<stop offset="1" stop-color="#E8868D"/>
</linearGradient>
<linearGradient id="paint5_linear" x1="83.8864" y1="79.643" x2="83.4307" y2="78.2334" gradientUnits="userSpaceOnUse">
<stop stop-color="#E78C6F"/>
<stop offset="0.197917" stop-color="#A25359"/>
</linearGradient>
<linearGradient id="paint6_linear" x1="81.6315" y1="83.1624" x2="63.7587" y2="89.9648" gradientUnits="userSpaceOnUse">
<stop stop-color="#47BDAE"/>
<stop offset="1" stop-color="#0098BA"/>
</linearGradient>
<linearGradient id="paint7_linear" x1="79.0854" y1="105.418" x2="64.4274" y2="66.9127" gradientUnits="userSpaceOnUse">
<stop stop-color="#9D68C2"/>
<stop offset="1" stop-color="#CCEDFF"/>
</linearGradient>
<linearGradient id="paint8_linear" x1="86.2612" y1="140.51" x2="29.3583" y2="78.3053" gradientUnits="userSpaceOnUse">
<stop stop-color="#0098BA"/>
<stop offset="1" stop-color="#63CEAE"/>
</linearGradient>
<linearGradient id="paint9_linear" x1="38.6915" y1="86.4475" x2="22.6718" y2="68.935" gradientUnits="userSpaceOnUse">
<stop stop-color="#FF937F"/>
<stop offset="1" stop-color="#E8868D"/>
</linearGradient>
<linearGradient id="paint10_linear" x1="82.4102" y1="137.278" x2="50.0603" y2="101.914" gradientUnits="userSpaceOnUse">
<stop stop-color="#CCEDFF"/>
<stop offset="1" stop-color="#9D68C2"/>
</linearGradient>
<linearGradient id="paint11_linear" x1="40.5592" y1="73.5732" x2="13.6354" y2="44.1407" gradientUnits="userSpaceOnUse">
<stop stop-color="#FFA98E"/>
<stop offset="1" stop-color="#FFC5A4"/>
</linearGradient>
<linearGradient id="paint12_linear" x1="37.0999" y1="69.7399" x2="15.5518" y2="46.184" gradientUnits="userSpaceOnUse">
<stop stop-color="#FFA88C"/>
<stop offset="1" stop-color="#E8868D"/>
</linearGradient>
<linearGradient id="paint13_linear" x1="16.7163" y1="74.0227" x2="14.3752" y2="66.0377" gradientUnits="userSpaceOnUse">
<stop stop-color="#FFA98E"/>
<stop offset="1" stop-color="#FFB19D"/>
</linearGradient>
<linearGradient id="paint14_linear" x1="16.2374" y1="73.0641" x2="14.9608" y2="68.7099" gradientUnits="userSpaceOnUse">
<stop stop-color="#FF937F"/>
<stop offset="1" stop-color="#E8868D"/>
</linearGradient>
<linearGradient id="paint15_linear" x1="28.8014" y1="57.9707" x2="12.5603" y2="40.2163" gradientUnits="userSpaceOnUse">
<stop stop-color="#92423B"/>
<stop offset="1" stop-color="#A64833"/>
</linearGradient>
<linearGradient id="paint16_linear" x1="49.4611" y1="137.117" x2="21.512" y2="106.564" gradientUnits="userSpaceOnUse">
<stop stop-color="#0098BA"/>
<stop offset="1" stop-color="#63D8AE"/>
</linearGradient>
<linearGradient id="paint17_linear" x1="45.8563" y1="79.3305" x2="31.9098" y2="92.0951" gradientUnits="userSpaceOnUse">
<stop stop-color="#D9EDFF"/>
<stop offset="1" stop-color="#E3FFFF"/>
</linearGradient>
<linearGradient id="paint18_linear" x1="33.5805" y1="49.5514" x2="30.5758" y2="46.2667" gradientUnits="userSpaceOnUse">
<stop stop-color="#92423B"/>
<stop offset="1" stop-color="#A64833"/>
</linearGradient>
<linearGradient id="paint19_linear" x1="22.9783" y1="54.7596" x2="21.5736" y2="53.224" gradientUnits="userSpaceOnUse">
<stop stop-color="#92423B"/>
<stop offset="1" stop-color="#A64833"/>
</linearGradient>
<linearGradient id="paint20_linear" x1="35.3294" y1="61.5894" x2="34.4009" y2="58.6297" gradientUnits="userSpaceOnUse">
<stop stop-color="#D68498"/>
<stop offset="1" stop-color="#FF817F"/>
</linearGradient>
<linearGradient id="paint21_linear" x1="34.1003" y1="53.145" x2="33.3284" y2="50.2283" gradientUnits="userSpaceOnUse">
<stop stop-color="#D68498"/>
<stop offset="1" stop-color="#FF817F"/>
</linearGradient>
<linearGradient id="paint22_linear" x1="25.4688" y1="58.6625" x2="24.4709" y2="54.8913" gradientUnits="userSpaceOnUse">
<stop stop-color="#D68498"/>
<stop offset="1" stop-color="#FF817F"/>
</linearGradient>
<linearGradient id="paint23_linear" x1="46.0493" y1="98.0934" x2="29.3476" y2="79.8354" gradientUnits="userSpaceOnUse">
<stop stop-color="#0098BA"/>
<stop offset="1" stop-color="#47D1C4"/>
</linearGradient>
<linearGradient id="paint24_linear" x1="48.9385" y1="82.5348" x2="41.5731" y2="89.276" gradientUnits="userSpaceOnUse">
<stop stop-color="#47BDAE"/>
<stop offset="1" stop-color="#0098BA"/>
</linearGradient>
<linearGradient id="paint25_linear" x1="55.245" y1="90.3036" x2="49.4838" y2="95.5765" gradientUnits="userSpaceOnUse">
<stop stop-color="#47BDAE"/>
<stop offset="1" stop-color="#0098BA"/>
</linearGradient>
<linearGradient id="paint26_linear" x1="53.6861" y1="91.5806" x2="40.5855" y2="77.2592" gradientUnits="userSpaceOnUse">
<stop stop-color="#00C9C7"/>
<stop offset="1" stop-color="#63D8AE"/>
</linearGradient>
<linearGradient id="paint27_linear" x1="32.4347" y1="39.3144" x2="8.63984" y2="61.0928" gradientUnits="userSpaceOnUse">
<stop stop-color="#FFCFC5"/>
<stop offset="1" stop-color="#9D6842"/>
</linearGradient>
<linearGradient id="paint28_linear" x1="33.1534" y1="113.207" x2="23.8024" y2="102.984" gradientUnits="userSpaceOnUse">
<stop stop-color="#9D68C2"/>
<stop offset="1" stop-color="#CCEDFF"/>
</linearGradient>
<linearGradient id="paint29_linear" x1="49.4117" y1="137.166" x2="30.1652" y2="116.126" gradientUnits="userSpaceOnUse">
<stop stop-color="#9D68C2"/>
<stop offset="1" stop-color="#CCEDFF"/>
</linearGradient>
<linearGradient id="paint30_linear" x1="61.9881" y1="86.0803" x2="52.971" y2="94.3333" gradientUnits="userSpaceOnUse">
<stop stop-color="#CCEDFF"/>
<stop offset="1" stop-color="#9D68C2"/>
</linearGradient>
<linearGradient id="paint31_linear" x1="86.6548" y1="67.6475" x2="86.6548" y2="159.528" gradientUnits="userSpaceOnUse">
<stop offset="0.244792" stop-color="#FFF7F7"/>
<stop offset="0.744792" stop-color="#FFC2C2"/>
<stop offset="1" stop-color="#FFC452"/>
</linearGradient>
<linearGradient id="paint32_linear" x1="168.934" y1="0" x2="168.934" y2="159.584" gradientUnits="userSpaceOnUse">
<stop offset="0.244792" stop-color="#FFF7F7"/>
<stop offset="0.744792" stop-color="#FFC2C2"/>
<stop offset="1" stop-color="#FFC452"/>
</linearGradient>
<linearGradient id="paint33_linear" x1="234.228" y1="44.1734" x2="214.391" y2="75.748" gradientUnits="userSpaceOnUse">
<stop offset="0.0625" stop-color="#7E91AF"/>
<stop offset="1" stop-color="#525B7B"/>
</linearGradient>
<linearGradient id="paint34_linear" x1="71.2748" y1="117.986" x2="69.0229" y2="111.02" gradientUnits="userSpaceOnUse">
<stop stop-color="#FF937F"/>
<stop offset="1" stop-color="#E8868D"/>
</linearGradient>
<linearGradient id="paint35_linear" x1="65.9159" y1="130.599" x2="59.554" y2="110.919" gradientUnits="userSpaceOnUse">
<stop stop-color="#FFA98E"/>
<stop offset="1" stop-color="#FFC5A4"/>
</linearGradient>
<linearGradient id="paint36_linear" x1="47.3281" y1="136.593" x2="43.3572" y2="124.31" gradientUnits="userSpaceOnUse">
<stop stop-color="#FFA88C"/>
<stop offset="1" stop-color="#E8868D"/>
</linearGradient>
</defs>
</svg>
