<svg width="360" height="640" viewBox="0 0 360 640" fill="none" xmlns="http://www.w3.org/2000/svg">
<g clip-path="url(#clip0_1459_6161)">
<rect width="360" height="640" fill="#B7DEE2"/>
<path d="M72.5914 151.971C138.913 122.915 190.611 134.814 239.807 136.668C242.496 136.769 245.178 136.608 247.831 136.159C283.184 130.18 336.26 112.734 292.774 85.2648C247.62 56.7416 175.971 87.013 145.791 105.714C138.455 98.331 115.777 86.4131 83.7515 97.8062C43.7194 112.048 52.9718 131.876 38.815 112.917C24.6582 93.9587 -53.6108 123.816 -45.7148 148.922C-37.8187 174.027 -12.5824 189.287 72.5914 151.971Z" fill="#D8E7E5"/>
<path d="M429.997 385.512C471.708 360.504 422.122 358.306 392.041 357.615C386.23 357.482 380.603 355.765 375.391 353.192C337.4 334.436 299.698 342.009 281.831 348.869C262.742 356.197 235.926 348.869 225.018 335.026C214.11 321.183 158.661 326.476 160.025 341.54C161.116 353.592 182.901 362.305 193.658 365.155C183.659 375.605 173.023 397.156 210.474 399.762C247.925 402.368 291.224 382.933 308.192 372.89C329.553 388.633 383.82 413.198 429.997 385.512Z" fill="#DFEEEC"/>
<path d="M253.066 509.348C256.637 515.961 268.974 528.435 289.746 525.424C315.712 521.662 320.055 487.985 306.551 488.134C295.748 488.253 283.024 494.811 278.013 498.076C295.098 484.193 321.437 455.732 290.118 452.948C261.193 450.377 254.172 476.024 254.131 492.17C253.259 475.888 247.758 450.718 230.788 456.443C212.43 462.636 220.938 483.784 227.486 493.585C220.839 489.959 205.427 482.99 196.962 484.127C186.381 485.547 176.715 503.237 194.583 510.895C208.878 517.022 221.285 515.292 225.702 513.661C226.907 553.227 279.638 559.465 253.066 509.348Z" fill="#579740"/>
<path fill-rule="evenodd" clip-rule="evenodd" d="M300.874 456.008C273.253 456.388 264.151 470.728 263.886 477.627C263.551 486.366 261.207 498.132 253.84 497.795C251.059 497.668 249.566 493.036 247.794 487.535C244.873 478.47 241.193 467.049 229.731 469.559C225.484 470.489 222.266 472.168 219.854 474.223C219.024 466.728 221.373 459.619 230.788 456.443C247.758 450.718 253.259 475.887 254.131 492.17C254.172 476.024 261.193 450.377 290.118 452.947C295.041 453.385 298.54 454.457 300.874 456.008ZM185.237 494.712C186.89 489.353 191.818 484.817 196.962 484.126C201.292 483.545 207.438 485.084 213.299 487.211C213.181 488.531 213.205 489.734 213.323 490.736C213.323 497.795 202.741 507.073 193.901 499.812C190.805 497.27 187.866 495.67 185.237 494.712Z" fill="#7BAC45"/>
<path d="M29.1321 477.64C-44.8679 446.123 -92.7013 476.315 -107.368 495.351C-125.201 484.508 -150.168 454.942 -107.368 423.425C-53.8679 384.028 16.6321 449.087 45.1321 469.689C73.6321 490.291 127.107 524.989 162.632 524.989C191.052 524.989 232.474 510.531 249.632 503.302C246.132 508.603 221.232 517.398 181.632 527.519C132.132 540.169 121.632 517.037 29.1321 477.64Z" fill="#774A37"/>
<path fill-rule="evenodd" clip-rule="evenodd" d="M-107.368 495.351C-92.7014 476.315 -44.8681 446.123 29.1319 477.64C58.48 490.14 79.5736 501.002 96.2773 509.604C132.221 528.114 147.837 536.155 181.632 527.519C203.324 521.975 220.605 516.829 232.374 512.437C240.035 509.243 245.123 506.479 247.292 504.271C243.062 505.994 237.729 508.024 231.694 510.127C211.875 517.817 183.687 526.772 162.372 527.38C126.875 528.392 71.5489 495.245 41.9473 475.472C12.3457 455.698 -57.5586 415.289 -108.868 456.18C-118.281 463.681 -123.793 470.297 -126.476 476.164C-121.731 484.599 -114.049 491.289 -107.368 495.351Z" fill="#55272B"/>
</g>
<defs>
<clipPath id="clip0_1459_6161">
<rect width="360" height="640" fill="white"/>
</clipPath>
</defs>
</svg>
