<svg width="360" height="640" viewBox="0 0 360 640" fill="none" xmlns="http://www.w3.org/2000/svg">
<g clip-path="url(#clip0_1459_6134)">
<rect width="360" height="640" fill="#95AEB0"/>
<path d="M72.5914 151.971C138.913 122.915 190.611 134.814 239.807 136.668C242.496 136.769 245.178 136.608 247.831 136.159C283.184 130.18 336.26 112.734 292.774 85.2648C247.62 56.7416 175.971 87.013 145.791 105.714C138.455 98.331 115.777 86.4131 83.7515 97.8062C43.7194 112.048 52.9718 131.876 38.815 112.917C24.6582 93.9587 -53.6108 123.816 -45.7148 148.922C-37.8187 174.027 -12.5824 189.287 72.5914 151.971Z" fill="#ABBCC6"/>
<path d="M429.997 385.512C471.708 360.504 422.122 358.306 392.041 357.615C386.23 357.482 380.603 355.765 375.391 353.192C337.4 334.436 299.698 342.009 281.831 348.869C262.742 356.197 235.926 348.869 225.018 335.026C214.11 321.183 158.661 326.476 160.025 341.54C161.116 353.592 182.901 362.305 193.658 365.155C183.659 375.605 173.023 397.156 210.474 399.762C247.925 402.368 291.224 382.933 308.192 372.89C329.553 388.633 383.82 413.198 429.997 385.512Z" fill="#B4BDC6"/>
<path d="M260.752 507.019C265.423 501.13 279.746 491 299.675 497.588C324.586 505.822 322.988 539.74 309.717 537.238C299.101 535.236 287.716 526.559 283.351 522.47C297.752 539.121 318.723 571.74 287.398 569.018C258.469 566.504 256.029 540.025 258.804 524.119C255.106 540 245.298 563.824 229.587 555.227C212.592 545.927 224.658 526.586 232.816 518.079C225.637 520.49 209.247 524.663 201.11 522.067C190.939 518.823 184.506 499.718 203.437 495.294C218.581 491.754 230.496 495.622 234.561 497.999C242.649 459.25 295.66 462.305 260.752 507.019Z" fill="#678753"/>
<path fill-rule="evenodd" clip-rule="evenodd" d="M289.636 569.156C283.896 565.855 264.954 546.813 265.874 540.142C267.068 531.477 266.813 519.484 259.5 518.53C256.739 518.17 254.461 522.471 251.756 527.578C247.299 535.994 241.683 546.599 230.835 542.127C226.815 540.471 223.94 538.256 221.922 535.812C219.798 543.047 220.871 550.458 229.587 555.227C245.298 563.824 255.106 540 258.804 524.12C256.029 540.025 258.469 566.504 287.398 569.018C288.176 569.086 288.921 569.132 289.636 569.156ZM191.411 509.599C192.104 515.164 196.165 520.49 201.11 522.067C205.271 523.395 211.591 522.952 217.734 521.88C217.848 520.559 218.082 519.379 218.372 518.413C219.604 511.462 210.803 500.481 200.832 506.088C197.34 508.052 194.166 509.114 191.411 509.599Z" fill="#72945E"/>
<path d="M36.8313 455.27C-43.5896 456.622 -76.5444 410.648 -82.9691 387.492C-103.572 390.827 -137.83 408.824 -110.037 454.131C-75.2961 510.765 14.5047 477.02 48.6626 468.658C82.8206 460.296 145.422 448.273 178.336 461.642C204.667 472.338 237.602 501.32 250.779 514.475C249.531 508.246 229.771 490.727 196.891 466.448C155.791 436.1 137.357 453.58 36.8313 455.27Z" fill="#774A37"/>
<path fill-rule="evenodd" clip-rule="evenodd" d="M-82.9693 387.492C-76.5445 410.648 -43.5897 456.622 36.8311 455.27C68.7257 454.733 92.3565 452.608 111.069 450.925C151.336 447.302 168.831 445.729 196.891 466.448C214.902 479.748 228.976 491.019 238.227 499.517C244.122 505.36 247.797 509.835 248.975 512.696C245.705 509.509 241.528 505.622 236.727 501.402C221.259 486.818 198.513 467.914 178.995 459.329C146.488 445.032 82.7551 454.922 47.8883 462.102C13.0215 469.282 -66.9512 480.413 -99.1003 423.219C-104.998 412.727 -107.615 404.523 -107.893 398.078C-100.322 392.048 -90.6875 388.742 -82.9693 387.492Z" fill="#55272B"/>
<path d="M210.627 570.59C207.314 563.855 202.722 564.438 199.985 566.045C199.102 566.563 198.471 567.404 197.859 568.224C192.214 575.778 186.714 570.846 184.145 575.795C181.983 579.959 188.648 581 192.251 581C199.998 580.826 214.518 578.502 210.627 570.59Z" fill="#678753"/>
<path fill-rule="evenodd" clip-rule="evenodd" d="M186.452 580.122C186.302 579.486 186.411 578.745 186.866 577.883C188.174 575.402 190.157 575.156 192.524 574.862C195.432 574.502 198.922 574.069 202.456 569.33C203.069 568.508 203.711 567.675 204.589 567.144C205.31 566.709 206.153 566.331 207.071 566.107C204.506 564.346 201.826 564.964 199.985 566.045C199.102 566.563 198.471 567.404 197.859 568.224C194.761 572.37 191.707 572.755 189.156 573.076C187.06 573.341 185.304 573.562 184.145 575.795C182.985 578.029 184.366 579.364 186.452 580.122Z" fill="#72945E"/>
<path d="M117.282 544.317C114.577 542.147 111.995 541.642 109.714 542.042C104.132 543.019 105.189 550.593 110.24 553.165C112.768 554.452 115.111 555.338 117.217 555.925C122.728 557.459 125.581 552.285 121.583 548.193C120.386 546.968 118.963 545.665 117.282 544.317Z" fill="#678753"/>
<path fill-rule="evenodd" clip-rule="evenodd" d="M109.714 542.041C111.994 541.642 114.577 542.147 117.282 544.317C118.963 545.665 120.386 546.968 121.583 548.193C121.839 548.455 122.067 548.721 122.267 548.99C122.117 548.884 121.964 548.779 121.809 548.672C120.032 547.457 118.289 546.916 116.645 546.833C111.925 546.595 111.171 551.387 113.587 554.689C112.513 554.258 111.396 553.753 110.239 553.165C105.189 550.593 104.132 543.019 109.714 542.041Z" fill="#72945E"/>
</g>
<defs>
<clipPath id="clip0_1459_6134">
<rect width="360" height="640" fill="white"/>
</clipPath>
</defs>
</svg>
