<svg width="70" height="101" viewBox="0 0 70 101" fill="none" xmlns="http://www.w3.org/2000/svg">
<path d="M29.1786 85.4252L23.5664 80.6457V68.0702H29.1786V85.4252Z" fill="#EF0671"/>
<path d="M40.8191 85.4252L46.4312 80.6457V68.0702H40.8191V85.4252Z" fill="#A20589"/>
<path d="M26.9849 0.0283203C11.9761 0.688568 0 13.7259 0 29.7148C0 36.5923 2.26245 43.2569 6.40141 48.5722L23.5667 70.6157H28.4927C28.4925 70.6157 21.0716 4.01269 26.9849 0.0283203Z" fill="#FFF0B8"/>
<path d="M43.0144 0.0283203C58.0232 0.688568 69.9993 13.7259 69.9993 29.7148C69.9993 36.5923 67.7369 43.2569 63.5979 48.5722L46.4326 70.6157H41.5066C41.5068 70.6157 48.9277 4.01269 43.0144 0.0283203Z" fill="#FF4E61"/>
<path d="M28.1803 0C27.78 0 27.3821 0.0110469 26.9856 0.0284062C21.0723 4.01278 16.7897 15.6947 16.7897 29.4879C16.7897 36.6449 17.9667 43.5801 20.1203 49.1113L28.4931 70.6158H35.0007L42.654 34.2859L35.0007 0H28.1803Z" fill="#F9DA37"/>
<path d="M53.2126 29.4879C53.2126 15.6947 48.9301 4.01278 43.0166 0.0284062C42.6204 0.0110469 42.2227 0 41.8222 0H35.0017V70.6158H41.5092L49.882 49.1113C52.0355 43.5801 53.2126 36.6447 53.2126 29.4879Z" fill="#F79F5E"/>
<path d="M23.5664 80.6459V91.4288C23.5664 96.7149 27.6302 101 32.6431 101H34.9997L41.5072 90.1458L34.9997 80.6459H23.5664Z" fill="#5F05A7"/>
<path d="M35.0011 80.6459V101H37.3576C42.3706 101 46.4344 96.7149 46.4344 91.4288V80.6459H35.0011Z" fill="#2D0390"/>
</svg>
