<svg width="39" height="52" viewBox="0 0 39 52" fill="none" xmlns="http://www.w3.org/2000/svg">
<g clip-path="url(#clip0_1418_7838)">
<path d="M16.8059 49.9136L13.5735 47.121V39.7732H16.8059V49.9136Z" fill="#EF0671"/>
<path d="M23.511 49.9136L26.7434 47.121V39.7732H23.511V49.9136Z" fill="#A20589"/>
<path d="M15.5426 0.0166016C6.89796 0.40238 0 8.01998 0 17.3622C0 21.3807 1.30311 25.2748 3.68705 28.3805L13.5739 41.2603H16.4111C16.411 41.2603 12.1367 2.34464 15.5426 0.0166016V0.0166016Z" fill="#FFF0B8"/>
<path d="M24.7752 0.0166016C33.4199 0.40238 40.3178 8.01998 40.3178 17.3622C40.3178 21.3807 39.0147 25.2748 36.6308 28.3805L26.744 41.2603H23.9067C23.9068 41.2603 28.1811 2.34464 24.7752 0.0166016V0.0166016Z" fill="#FF4E61"/>
<path d="M16.2311 0C16.0005 0 15.7714 0.00645462 15.543 0.0165976C12.1371 2.34464 9.67041 9.17029 9.67041 17.2296C9.67041 21.4114 10.3484 25.4636 11.5888 28.6954L16.4113 41.2603H20.1595L24.5676 20.0331L20.1595 0H16.2311Z" fill="#F9DA37"/>
<path d="M30.6492 17.2296C30.6492 9.17029 28.1826 2.34464 24.7765 0.0165976C24.5483 0.00645462 24.3193 0 24.0886 0H20.1602V41.2603H23.9083L28.7308 28.6954C29.9712 25.4636 30.6492 21.4112 30.6492 17.2296Z" fill="#F79F5E"/>
<path d="M13.5735 47.1211V53.4215C13.5735 56.5101 15.9141 59.014 18.8015 59.014H20.1588L23.9069 52.6718L20.1588 47.1211H13.5735Z" fill="#5F05A7"/>
<path d="M20.1599 47.1211V59.014H21.5172C24.4046 59.014 26.7452 56.5101 26.7452 53.4215V47.1211H20.1599Z" fill="#2D0390"/>
</g>
<defs>
<clipPath id="clip0_1418_7838">
<rect width="39" height="52" fill="white"/>
</clipPath>
</defs>
</svg>
