<svg width="360" height="640" viewBox="0 0 360 640" fill="none" preserveAspectRatio="none" xmlns="http://www.w3.org/2000/svg">
<g clip-path="url(#clip0_1439_5910)">
<rect width="360" height="640" fill="#B7DEE2"/>
<path d="M84.5303 620.265C79.2141 630.108 60.8523 648.673 29.9343 644.193C-8.71332 638.592 -15.1764 588.468 4.92211 588.689C21.0009 588.866 39.9395 598.628 47.399 603.487C21.9697 582.823 -17.2347 540.461 29.3815 536.318C72.4328 532.491 82.8832 570.665 82.9452 594.697C84.2428 570.462 92.4308 533 117.689 541.52C145.012 550.737 132.349 582.215 122.602 596.802C132.497 591.405 155.435 581.034 168.035 582.725C183.784 584.839 198.171 611.168 171.576 622.568C150.3 631.687 131.833 629.112 125.259 626.684C123.465 685.574 44.9791 694.859 84.5303 620.265Z" fill="#579740"/>
<path fill-rule="evenodd" clip-rule="evenodd" d="M13.1183 545.892C29.4231 546.004 62.4 546.232 68.425 573.05C68.9047 575.186 69.3358 577.466 69.7733 579.78C71.9375 591.226 74.2557 603.486 83.377 603.07C87.5176 602.881 89.7393 595.985 92.3769 587.799C96.7241 574.306 102.201 557.306 119.262 561.043C125.583 562.427 130.372 564.926 133.963 567.985C135.197 556.829 131.702 546.247 117.689 541.52C92.4308 533 84.2429 570.462 82.9453 594.696C82.8832 570.665 72.4329 532.491 29.3816 536.318C17.5826 537.367 11.2817 540.864 8.86377 545.838C10.0964 545.871 11.528 545.881 13.1183 545.892ZM185.486 598.48C183.026 590.504 175.691 583.752 168.035 582.725C161.591 581.86 152.443 584.15 143.719 587.316C143.895 589.281 143.859 591.071 143.684 592.563C143.684 603.07 159.433 616.878 172.591 606.072C177.199 602.287 181.574 599.906 185.486 598.48Z" fill="#7BAC45"/>
<path d="M268.5 580.64C342.5 549.123 390.333 579.315 405 598.351C422.833 587.508 447.8 557.942 405 526.425C351.5 487.028 281 552.087 252.5 572.689C224 593.291 170.525 627.989 135 627.989C106.58 627.989 65.1582 613.531 48 606.302C51.5 611.603 76.4 620.398 116 630.519C165.5 643.169 176 620.037 268.5 580.64Z" fill="#774A37"/>
<path fill-rule="evenodd" clip-rule="evenodd" d="M405 598.351C390.334 579.315 342.5 549.123 268.5 580.64C239.152 593.14 218.058 604.002 201.355 612.604C165.411 631.114 149.795 639.155 116 630.519C94.3084 624.975 77.0274 619.829 65.2584 615.437C57.5973 612.243 52.5093 609.479 50.3403 607.271C54.5699 608.994 59.9026 611.024 65.9382 613.127C85.7573 620.817 113.946 629.772 135.26 630.38C170.757 631.392 226.083 598.245 255.685 578.472C285.286 558.698 355.191 518.289 406.5 559.18C415.913 566.681 421.425 573.297 424.108 579.164C419.363 587.599 411.681 594.289 405 598.351Z" fill="#55272B"/>
<path d="M88.5914 149.971C154.913 120.915 206.611 132.814 255.807 134.668C258.496 134.769 261.178 134.608 263.831 134.159C299.184 128.18 352.26 110.734 308.774 83.2648C263.62 54.7416 191.971 85.013 161.791 103.714C154.455 96.331 131.777 84.4131 99.7515 95.8062C59.7194 110.048 68.9718 129.876 54.815 110.917C40.6582 91.9587 -37.6108 121.816 -29.7148 146.922C-21.8187 172.027 3.41761 187.287 88.5914 149.971Z" fill="#D8E7E5"/>
</g>
<defs>
<clipPath id="clip0_1439_5910">
<rect width="360" height="640" fill="white"/>
</clipPath>
</defs>
</svg>
